<svg id="Layer_1" data-name="Layer 1" xmlns="http://www.w3.org/2000/svg" viewBox="0 0 1028.51 234"><path d="M52.56,87.84l-14-29.52H26V87.84h-22V2.16H37.92q16.8,0,25.5,6.9t8.7,20.22A31.08,31.08,0,0,1,68.88,43.8a23.88,23.88,0,0,1-9.48,9.84l17.52,34.2ZM37.32,40.44q6.6,0,9.6-2.52t3-7.92q0-5.16-3.3-7.62t-10-2.46H26V40.44Z"/><path d="M84.36,17.88V2.16h22V17.88Zm.12,70v-63H106.2v63Z"/><path d="M178.68,63.6q-1.2,12.72-8.76,19.44t-20.76,6.72q-15.12,0-23.34-8.58t-8.22-24.3q0-16.08,8.52-25t23.64-8.94q12.24,0,19.56,6.12T178,46.44l-20.76,2q-.84-4.44-2.76-6.42a7,7,0,0,0-5.28-2q-9.6,0-9.6,16.32t9.6,16.2a7.8,7.8,0,0,0,5.94-2.34,10.65,10.65,0,0,0,2.58-6.66Z"/><path d="M248.76,67.56q-1.92,11-9.48,16.62t-20.52,5.58q-15.6,0-23.76-8.28t-8.16-24.12q0-16.2,8.52-25.32T219,22.92q14.28,0,22.26,8.34t8,23.34v6.84H207.72q.48,6.72,3,9.72t7.8,3q8.16,0,10-6.6ZM229.2,49.08q-.24-5.64-2.7-8.22T219,38.28q-10.08,0-11.28,10.8Z"/><path d="M281.52,87.84V21.72H256.8V2.16h72.48V21.72H304.56V87.84Z"/><path d="M386.76,67.56q-1.92,11-9.48,16.62t-20.52,5.58q-15.6,0-23.76-8.28t-8.16-24.12q0-16.2,8.52-25.32T357,22.92q14.28,0,22.26,8.34t8,23.34v6.84H345.72q.48,6.72,3,9.72t7.8,3q8.16,0,10-6.6ZM367.2,49.08q-.24-5.64-2.7-8.22T357,38.28q-10.08,0-11.28,10.8Z"/><path d="M436,87.84V81a28.11,28.11,0,0,1-8.76,6.48,25,25,0,0,1-10.32,2q-9.86,0-15.54-5.1t-5.7-13.86q0-10,7.44-15.18t22.8-5.94l9.48-.48V46.44c0-5.52-2.69-8.28-8-8.28-5,0-7.8,2.08-8.52,6.24l-19.56-1.56q3.24-19.92,29-19.92,14.27,0,21.12,6.36t6.84,19.44V87.84Zm-.72-26.64-7,.36c-4.08.24-7.07.94-8.94,2.1a5.73,5.73,0,0,0-2.82,5.22c0,3.84,2.35,5.76,7.08,5.76a11.66,11.66,0,0,0,8.52-3.06,11,11,0,0,0,3.12-8.22Z"/><path d="M546.6,56.52q-1,15.72-11,24.6t-27,8.88q-19.46,0-30.18-11.7T467.63,45.48q0-21.36,11-33.42T509.15,0q15.36,0,24.49,7.62t11.63,22.62l-22.92,2.64c-1-4.64-2.54-8-4.74-10s-5.26-3.06-9.17-3.06Q492,19.8,492,44.88q0,25.32,16.69,25.32,6.23,0,9.84-3.48t4.55-10.2Z"/><path d="M593.51,87.84V81a27.89,27.89,0,0,1-8.76,6.48,25,25,0,0,1-10.32,2q-9.84,0-15.54-5.1t-5.7-13.86q0-10,7.44-15.18t22.8-5.94l9.48-.48V46.44q0-8.28-8-8.28-7.44,0-8.52,6.24l-19.56-1.56q3.24-19.92,29-19.92,14.28,0,21.12,6.36t6.84,19.44V87.84Zm-.72-26.64-7,.36q-6.12.36-8.94,2.1a5.73,5.73,0,0,0-2.82,5.22q0,5.76,7.08,5.76,5.4,0,8.52-3.06a11,11,0,0,0,3.12-8.22Z"/><path d="M669.23,86.64a49.76,49.76,0,0,1-14.88,2.28q-12,0-17.4-5.58t-5.4-18.18V41.76H621.47V24.84h10.08V8.28h21.72V24.84H667V41.76H653.27V64.2q0,3.84,1.68,5.58t5.52,1.74a25.63,25.63,0,0,0,6-.72Z"/><path d="M678.47,87.84V2.16h32q17.28,0,25.8,7.08t8.52,21.48Q744.83,60,710.75,60h-10V87.84Zm32.16-46.2q6.72,0,9.78-2.58t3.06-8.22q0-5.64-3-8t-10-2.4h-9.72V41.64Z"/><path d="M788.75,87.84V81A27.89,27.89,0,0,1,780,87.48a25,25,0,0,1-10.32,2q-9.84,0-15.54-5.1t-5.7-13.86q0-10,7.44-15.18t22.8-5.94l9.48-.48V46.44q0-8.28-8-8.28-7.44,0-8.52,6.24L752,42.84q3.24-19.92,29-19.92,14.28,0,21.12,6.36T809,48.72V87.84ZM788,61.2l-7,.36q-6.12.36-8.94,2.1a5.73,5.73,0,0,0-2.82,5.22q0,5.76,7.08,5.76,5.4,0,8.52-3.06A11,11,0,0,0,788,63.36Z"/><path d="M860.51,87.84V49.2q0-4.44-1.68-6.42t-5.4-2a10,10,0,0,0-7.2,2.76,10.54,10.54,0,0,0-2.88,7.8V87.84H821.63v-63h21.12v7.44a22.68,22.68,0,0,1,19.08-9.36q10,0,15.18,5.88t5.22,16.92V87.84Z"/><path d="M936.59,87.84V80.76q-6.6,9-18.36,9-12,0-18.6-8.52t-6.6-24a47.9,47.9,0,0,1,3.24-18.54,25.7,25.7,0,0,1,9.18-11.76,24.34,24.34,0,0,1,14-4q10.56,0,16.56,7.44V2.16h21.72V87.84ZM936,55.56q0-8.16-2.52-11.76t-7.8-3.6Q915,40.2,915,56.28t10.56,16a8.88,8.88,0,0,0,7.92-4Q936,64.68,936,57.36Z"/><path d="M1008.23,87.84V81a27.89,27.89,0,0,1-8.76,6.48,25,25,0,0,1-10.32,2q-9.84,0-15.54-5.1t-5.7-13.86q0-10,7.44-15.18t22.8-5.94l9.48-.48V46.44q0-8.28-8-8.28-7.44,0-8.52,6.24l-19.56-1.56q3.24-19.92,29-19.92,14.28,0,21.12,6.36t6.84,19.44V87.84Zm-.72-26.64-7,.36q-6.12.36-8.94,2.1a5.73,5.73,0,0,0-2.82,5.22q0,5.76,7.08,5.76,5.4,0,8.52-3.06a11,11,0,0,0,3.12-8.22Z"/><path d="M1.56,231.84V215.52L21.36,199Q32,190,35.82,184.8a17.86,17.86,0,0,0,3.78-10.68,9.46,9.46,0,0,0-2.16-6.66q-2.16-2.34-6.36-2.34a9,9,0,0,0-6.84,2.64q-2.52,2.64-3.36,8L0,173.76q1.8-13.2,10.14-20.16t22.14-7q13.92,0,21.6,6.84t7.68,19.2a30.46,30.46,0,0,1-4.08,15.48q-4.08,7.08-13.92,15.72l-11.28,9.84h30.6L61,231.84Z"/><path d="M102.36,234q-16,0-23.7-10.74t-7.74-32.7q0-43.92,32.16-43.92,16,0,23.7,10.74t7.74,32.7Q134.52,234,102.36,234Zm.36-18.84a6.85,6.85,0,0,0,5.46-2.28q2-2.28,2.94-7.62a89.4,89.4,0,0,0,1-14.94,98.94,98.94,0,0,0-.84-14.52q-.84-5.4-2.88-7.86a6.93,6.93,0,0,0-5.64-2.46,6.85,6.85,0,0,0-5.46,2.28q-2,2.28-2.94,7.62a89.4,89.4,0,0,0-1,14.94,98.94,98.94,0,0,0,.84,14.52q.84,5.4,2.88,7.86A6.93,6.93,0,0,0,102.72,215.16Z"/><path d="M143.64,231.84V215.52L163.44,199q10.68-9,14.46-14.16a17.86,17.86,0,0,0,3.78-10.68,9.46,9.46,0,0,0-2.16-6.66q-2.16-2.34-6.36-2.34a9,9,0,0,0-6.84,2.64q-2.52,2.64-3.36,8l-20.88-2q1.8-13.2,10.14-20.16t22.14-7q13.92,0,21.6,6.84t7.68,19.2a30.46,30.46,0,0,1-4.08,15.48q-4.08,7.08-13.92,15.72l-11.28,9.84H205L203,231.84Z"/><path d="M240.24,231.84V173.52l-13.44,9L216.72,166.8,244,148.92h18.36v82.92Z"/></svg>