<svg xmlns="http://www.w3.org/2000/svg" xmlns:xlink="http://www.w3.org/1999/xlink" data-name="Layer 1" viewBox="0 0 802.21443 825.59442"><defs><linearGradient id="b" x1="959.94909" y1="607.43509" x2="959.94909" y2="587.43509" gradientTransform="rotate(26.478 1554.22137984 -112.6438013)" gradientUnits="userSpaceOnUse"><stop offset="0" stop-color="#fff"></stop><stop offset="1"></stop></linearGradient><linearGradient id="a" x1="1312.88486" y1="1202.2339" x2="1312.88486" y2="1014.2339" gradientTransform="rotate(-5.0489 -3261.236503 7777.89491328)" gradientUnits="userSpaceOnUse"><stop offset="0" stop-color="gray" stop-opacity=".25"></stop><stop offset=".53514" stop-color="gray" stop-opacity=".12"></stop><stop offset="1" stop-color="gray" stop-opacity=".1"></stop></linearGradient><linearGradient id="c" x1="1109.30736" y1="1145.58745" x2="1109.30736" y2="787.49126" gradientTransform="rotate(-5.0489 -2739.8392685 5540.73856407)" xlink:href="#a"></linearGradient></defs><path d="M593.59022 383.91856c14.355 1.44133 28.754-1.83528 42.60553-5.86968 27.46434-7.99927 55.96163-20.70651 70.19846-45.51761 5.19966-9.06167 8.1514-19.207 11.05716-29.24228 5.86583-20.25809 11.77146-40.74956 12.71518-61.81868a133.98566 133.98566 0 00-14.58047-66.87961 14.41226 14.41226 0 00-7.40115-6.90332c-5.60739-2.20431-8.68928.80714-11.1374 3.94491-14.85064 19.03411-13.31289 45.53086-14.55309 69.641a251.22415 251.22415 0 01-14.05652 70.84022c-3.42773 9.67864-7.9463 19.75225-16.65014 25.19912-5.33128 3.33632-11.67583 4.5593-17.85693 5.7201-9.24375 1.736-19.33495 3.35477-27.62193-1.09226-8.4863-4.554-14.09864-16.35446-23.8913-18.31622-9.68839-1.94087-22.91052 8.2091-27.23562 16.76086-11.71412 23.16164 19.19087 41.60366 38.40822 43.53345z" fill="#ffd180"></path><g opacity=".1"><path d="M651.78775 337.31258c-5.33141 3.33618-11.67588 4.5593-17.85684 5.72011-6.34946 1.19228-13.08718 2.28036-19.37678 1.43438 7.89811 3.29257 17.14748 1.8512 25.6908.2468 6.181-1.1608 12.52543-2.38393 17.85684-5.72011 8.70386-5.44679 13.22259-15.52041 16.64984-25.19916a251.19636 251.19636 0 0014.05661-70.84016c1.24026-24.11019-.29708-50.60682 14.55361-69.641 1.72029-2.20468 3.774-4.307 6.77636-4.62143a12.89373 12.89373 0 00-1.95282-1.00467c-5.60766-2.2044-8.69005.807-11.13756 3.94492-14.85068 19.03417-13.31335 45.53081-14.55361 69.641a251.19643 251.19643 0 01-14.05658 70.84016c-3.42727 9.67879-7.94601 19.75236-16.64987 25.19916zM561.49629 342.06641c3.99728-7.90445 15.59114-17.1528 24.97491-16.97857a15.51279 15.51279 0 00-4.05343-1.4635c-9.6884-1.941-22.91066 8.209-27.2355 16.76088-10.92672 21.6039 15.22382 39.09577 34.38634 42.91762-18.00309-5.92263-37.83346-21.93622-28.07232-41.23643z"></path></g><path opacity=".1" d="M472.64890445 172.26530296l166.68573247 83.0266883-24.03404241 48.2511352-166.68573246-83.0266883z"></path><path fill="#f5754d" d="M472.64889866 172.26530698l166.68573246 83.0266883-21.84912662 43.86466267-166.68573247-83.0266883z"></path><circle cx="579.34745" cy="199.86319" r="29.40302" fill="#f5754d"></circle><path d="M557.01133 46.54339s50.90816 13.801 69.44416 34.59036c0 0 30.031-25.48921 43.91984-18.57114s-6.84782 60.14982-6.84782 60.14982l-18.37793 83.29787s9.5578 201.22124-119.91324 240.73979-222.2389-122.25439-192.26059-182.43933S452.99436 92.96245 452.99436 92.96245 531.50455 4.94714 545.37582.29997s11.63551 46.24342 11.63551 46.24342z" fill="#ffd180"></path><g opacity=".1" fill="#fff"><path d="M634.44303 308.66605a409.09054 409.09054 0 0010.70673-102.6557l-2.90212 13.15386a408.91977 408.91977 0 01-7.80461 89.50184zM347.4823 255.97189c29.97836-60.18505 102.61038-149.85546 102.61038-149.85546s78.50993-88.01549 92.38106-92.66261c13.87121-4.64731 11.6352 46.24331 11.6352 46.24331s50.90845 13.80105 69.44454 34.59053c0 0 30.03123-25.48912 43.91956-18.5713 5.391 2.68527 5.55655 12.353 3.75158 23.17188 4.01772-15.13774 6.69764-32.5665-.84945-36.32573-13.88834-6.91783-43.91957 18.5713-43.91957 18.5713-18.53609-20.78948-69.44454-34.59054-69.44454-34.59054s2.236-50.89061-11.6352-46.24331c-13.87113 4.64713-92.38106 92.66262-92.38106 92.66262s-72.632 89.67041-102.61038 149.85546c-2.70829 5.43717-3.76192 14.87999-2.90212 13.15385z"></path></g><circle cx="606.93333" cy="172.52905" r="10.34428" fill="#58555d"></circle><circle cx="500.45227" cy="119.4905" r="10.34428" fill="#58555d"></circle><ellipse cx="750.28834" cy="193.6248" rx="10.34428" ry="15.51642" transform="rotate(-63.522 620.79531875 335.65817067)" fill="#58555d"></ellipse><path fill="#ffd180" d="M634.08800952 188.87078075l1.24829139-5.02104634 46.27611724 11.50478902-1.2482914 5.02104633zM624.81381372 207.3589246l1.35676324-4.9895844 50.89757056 13.84002091-1.35676323 4.9895844zM431.35030618 58.8597118l3.85740029-3.43930087 37.07201782 41.57868643-3.85740029 3.43930086zM406.36852034 75.48249569l2.98303505-4.22493214 55.57290079 39.2375322-2.98303505 4.22493214z"></path><path d="M463.11892 284.84748s-2.67827 86.03992-47.913 70.95161 6.22313-70.07294 6.22313-70.07294 5.32635-21.28729-4.42957-27.49835M502.86369 302.52492s-71.5844 47.80913-34.842 78.20374 56.16085-42.36629 56.16085-42.36629 15.24255-15.78554 25.67575-10.79519" opacity=".1"></path><path d="M460.30399 281.00597s-2.67827 86.03991-47.913 70.9516 6.22314-70.07293 6.22314-70.07293 5.32635-21.2873-4.42957-27.49835M507.25432 301.04535s-71.58441 47.80913-34.842 78.20373 56.1609-42.36628 56.1609-42.36628 15.24254-15.78559 25.67574-10.79519" fill="#ffd180"></path><path fill="#58555d" opacity=".5" d="M399.24287634 344.36685514l6.80367253-13.65916385.73107726.3641519-6.80367253 13.65916384zM410.9401151 350.19329512l6.80367252-13.65916385.73107726.36415189-6.80367253 13.65916384zM404.04265851 348.13347073l9.52343124-19.11939576.73107727.36415188-9.52343125 19.11939576zM476.73157063 379.3143713l6.80367253-13.65916384.73107726.36415189-6.80367253 13.65916384zM488.42881384 385.14080233l6.80367253-13.65916384.73107726.36415189-6.80367253 13.65916384zM481.53135726 383.08097794l9.52343124-19.11939576.73107726.3641519-9.52343124 19.11939575z"></path><path d="M510.35929 209.90566a236.608 236.608 0 01-34.62978-21.10426c-34.40358-25.29178-52.92408-54.899-53.58629-55.98438l5.33481-6.67679c.15477.25329 20.80931 31.4079 53.91552 55.65414 30.4735 22.31683 88.6558 49.15325 162.94036 46.03681l.377 8.99219c-53.91489 2.26204-102.77818-11.19088-134.35162-26.91771z" opacity=".1"></path><path d="M509.55483 215.65603l-.15882-.47405a5.41817 5.41817 0 003.86538-7.7142l.45366-.20989a5.91231 5.91231 0 01-4.16022 8.39814z" fill="#4d8af0"></path><path d="M509.55483 215.65603l-.15882-.47405a5.41817 5.41817 0 003.86538-7.7142l.45366-.20989a5.91231 5.91231 0 01-4.16022 8.39814z" opacity=".1"></path><path d="M645.22562 226.04097c-74.28456 3.11644-132.46687-23.72-162.94036-46.03681-33.10621-24.24624-53.76075-55.40085-53.91552-55.65414l-7.68286 4.68842c.6622 1.08536 21.53076 32.681 55.93434 57.97275a236.608 236.608 0 0034.62978 21.10426c31.57344 15.72683 80.43673 29.17975 134.35164 26.91771zm-132.1834-17.78276a1 1 0 111.341-.44925 1 1 0 01-1.341.44925z" fill="#f55f44"></path><path d="M696.742 253.53387a10 10 0 004.4925 13.40959 10 10 0 0013.40959-4.4925 10 10 0 00-4.4925-13.40959 10 10 0 00-13.40959 4.4925zm11.18033-.017a1.66667 1.66667 0 112.23493-.74875 1.66669 1.66669 0 01-2.23491.74878z" transform="translate(-198.89278 -37.20279)" opacity=".1" fill="url(#b)"></path><path d="M498.74435 216.77693a9 9 0 004.04325 12.06863 9 9 0 0012.06863-4.04325 9 9 0 00-4.04325-12.06863 9 9 0 00-12.06863 4.04325zm10.06229-.01527a1.5 1.5 0 112.01144-.67388 1.5 1.5 0 01-2.01144.67388z" fill="#4d8af0"></path><path d="M509.23839 215.49841a5.91232 5.91232 0 014.19694-8.37985l.10578.48855a5.41816 5.41816 0 00-3.82867 7.73248zM513.488 207.363" fill="#4d8af0"></path><path d="M632.02335 222.83553c-159.3404 11.1242-196.913-91.37985-196.913-91.37985z" fill="#ffd180"></path><path d="M216.25603 578.33571h-20.87892v176.52175s134.76392 43.65592 265.73167 0V578.33571z" fill="#3f3d56"></path><ellipse cx="326.34486" cy="579.28475" rx="130.96775" ry="19.92988" fill="#2B1900"></ellipse><ellipse cx="326.34486" cy="579.28475" rx="130.96775" ry="19.92988" opacity=".1"></ellipse><path d="M478.58642 367.43221c-33.03886 122.13152-146.20441 197.77061-146.20441 197.77061s-59.599-122.37515-26.56012-244.50662 146.20442-197.77058 146.20442-197.77058 59.59897 122.37515 26.56011 244.50659z" fill="#e65f26"></path><path d="M178.02495 367.43221c33.03886 122.13148 146.20441 197.77057 146.20441 197.77057s59.599-122.37515 26.56012-244.50662-146.20441-197.77054-146.20441-197.77054-59.59898 122.37515-26.56012 244.50659z" fill="#f5754d"></path><path d="M226.57322 341.18488c90.65911 88.25299 101.73247 223.91833 101.73247 223.91833s-135.91411-7.421-226.57322-95.674S0 245.51092 0 245.51092s135.91411 7.42098 226.57322 95.67396z" fill="#e65f26"></path><path d="M430.03815 341.18488c-90.65911 88.25299-101.73246 223.91833-101.73246 223.91833s135.9141-7.421 226.57321-95.674 101.73247-223.91829 101.73247-223.91829-135.91415 7.42098-226.57322 95.67396z" fill="#b74d0b"></path><circle cx="328.24294" cy="122.7957" r="41.75783" fill="#f5754d"></circle><circle cx="708.20868" cy="731.58867" r="94" fill="url(#a)" opacity=".5"></circle><circle cx="708.20868" cy="731.58867" r="88" fill="#f55f44"></circle><path d="M651.77377 828.84707c-13.28809 1.17392-27.8998-5.42717-30.76812-18.59694-1.65684-7.60734.965-15.04465 3.50063-22.23612 2.779-7.88256 5.17946-14.69053 1.71025-20.29663-1.57938-2.55256-4.34-4.488-7.0871-6.19823-3.58-2.22778-7.422-4.28536-11.13738-6.27471-6.42028-3.43859-13.05971-6.99408-18.96089-11.70888-11.59832-9.26725-17.46381-21.62911-15.6906-33.06782 1.53213-9.88411 8.21548-17.45573 14.67866-24.77849 6.628-7.50987 12.88847-14.603 12.742-23.28586-.19815-11.80865-12.26852-20.28813-22.91784-27.76868l-1.66164-1.16983c-12.99468-9.16546-25.47668-25.07308-17.88809-39.73723 2.64914-5.11919 7.07-8.40477 11.34507-11.58237a41.99275 41.99275 0 007.82353-6.839c7.813-9.67724 3.82569-24.01087 1.74893-29.7243-1.57921-4.34272-3.64344-8.6769-5.64-12.86707-2.94877-6.1903-5.998-12.59133-7.7688-19.49647l-.29078-1.1331c-4.26776-16.62055-4.2633-17.24152.24724-33.18958l.56238-1.99032 6.73727 1.89984-.56386 1.99584c-4.08252 14.4343-4.08252 14.4343-.20312 29.54411l.29136 1.134c1.60238 6.24748 4.37364 12.06524 7.3079 18.22447 2.06717 4.33981 4.20532 8.82824 5.89924 13.48729 5.24777 14.436 4.19762 27.74508-2.88155 36.51242a47.81356 47.81356 0 01-9.09454 8.06012c-3.80405 2.82717-7.39737 5.49847-9.30331 9.18146-5.90211 11.40446 7.09556 24.7264 15.70592 30.79986l1.65065 1.162c11.42117 8.02315 25.63482 18.00829 25.89316 33.37815.19172 11.39746-7.27357 19.85579-14.49337 28.03557-6.06342 6.87079-11.79047 13.35991-13.00923 21.22031-1.62957 10.51231 5.7208 20.595 13.14315 26.52638 5.40067 4.31492 11.47 7.5649 17.89587 11.00593 3.81416 2.04239 7.758 4.1547 11.5321 6.50356 3.47015 2.16 7.003 4.68021 9.3406 8.4579 5.23213 8.45519 2.033 17.53071-1.06117 26.30678-2.31263 6.559-4.49666 12.75378-3.26294 18.41816 2.22927 10.23612 15.65609 14.8939 26.30923 12.67437 8.71814-1.81723 16.391-6.60575 24.514-11.67423 2.62711-1.6399 5.344-3.33478 8.07992-4.90782 14.933-8.57689 28.46374-10.67222 39.13146-6.06283a51.7002 51.7002 0 019.48254 5.78661 52.20869 52.20869 0 007.27366 4.63669 25.15608 25.15608 0 0032.24841-11.1997c.5134-1.06886.97572-2.21654 1.465-3.4313 1.55375-3.85775 3.315-8.2299 7.33632-10.97235 4.211-2.871 9.39841-2.82827 13.1874-2.79635l39.1361.33169-.06007 6.99923-39.13513-.33177c-3.71291-.0308-6.96446.06724-9.18467 1.58-2.26539 1.54519-3.49037 4.58569-4.7868 7.805-.50935 1.26457-1.0364 2.57286-1.64837 3.8465a32.1373 32.1373 0 01-41.63035 14.45896 58.21663 58.21663 0 01-8.27439-5.23355 45.7419 45.7419 0 00-8.18795-5.05395c-10.81387-4.67686-23.84188.523-32.86549 5.70731-2.626 1.50842-5.28745 3.17-7.86169 4.77579-8.28558 5.17108-16.85325 10.51707-26.79207 12.58821a32.8394 32.8394 0 01-3.80864.56097z" transform="translate(-198.89278 -37.20279)" fill="url(#c)" opacity=".5"></path><path d="M454.60922 788.47992c-13.28809 1.17392-27.8998-5.42717-30.76812-18.59694-1.65684-7.60735.965-15.04466 3.50062-22.23613 2.779-7.88256 5.17947-14.69052 1.71026-20.29663-1.57938-2.55255-4.34-4.488-7.0871-6.19822-3.58006-2.22778-7.422-4.28536-11.13738-6.27472-6.42028-3.43858-13.05971-6.99407-18.96089-11.70888-11.59832-9.26724-17.46381-21.62911-15.6906-33.06781 1.53213-9.88411 8.21548-17.45573 14.67866-24.77849 6.628-7.50987 12.88846-14.603 12.742-23.28587-.19815-11.80865-12.26852-20.28813-22.91784-27.76867l-1.66164-1.16984c-12.99468-9.16545-25.47668-25.07307-17.88809-39.73722 2.64914-5.1192 7.07-8.40478 11.34507-11.58237a41.99311 41.99311 0 007.82353-6.839c7.813-9.67724 3.82569-24.01087 1.74892-29.7243-1.5792-4.34272-3.64343-8.67691-5.64-12.86707-2.94877-6.1903-5.998-12.59133-7.7688-19.49647l-.29078-1.1331c-4.26776-16.62056-4.2633-17.24152.24723-33.18958l.56239-1.99032 6.73727 1.89983-.56386 1.99584c-4.08252 14.43431-4.08252 14.43431-.20312 29.54412l.29135 1.134c1.60239 6.24749 4.37365 12.06525 7.30791 18.22448 2.06717 4.33981 4.20532 8.82824 5.89923 13.48729 5.24778 14.436 4.19763 27.74508-2.88154 36.51242a47.81316 47.81316 0 01-9.09454 8.06011c-3.80405 2.82718-7.39737 5.49848-9.30331 9.18147-5.90211 11.40446 7.09556 24.7264 15.70592 30.79986l1.65065 1.162c11.42125 8.02312 25.63488 18.00831 25.89324 33.37821.19172 11.39746-7.27357 19.85578-14.49337 28.03556-6.06342 6.87079-11.79047 13.35991-13.00924 21.22032-1.62956 10.51231 5.72081 20.595 13.14315 26.52638 5.40067 4.31491 11.47 7.5649 17.89588 11.00593 3.81415 2.04239 7.758 4.15469 11.53209 6.50356 3.47015 2.16 7.003 4.68021 9.3406 8.4579 5.23214 8.45518 2.033 17.53071-1.06116 26.30677-2.31263 6.559-4.49666 12.75379-3.26294 18.41817 2.22926 10.23611 15.65609 14.8939 26.30923 12.67436 8.71814-1.81722 16.391-6.60574 24.514-11.67423 2.62711-1.63989 5.344-3.33477 8.07992-4.90781 14.933-8.57689 28.46374-10.67222 39.13146-6.06283a51.7002 51.7002 0 019.48254 5.78661 52.20708 52.20708 0 007.27366 4.63668 25.15609 25.15609 0 0032.24841-11.1997c.5134-1.06885.97572-2.21653 1.465-3.43129 1.55375-3.85775 3.315-8.2299 7.33632-10.97235 4.211-2.871 9.39841-2.82828 13.1874-2.79635l39.1361.33168-.06007 6.99924-39.13513-.33177c-3.71292-.0308-6.96446.06724-9.18468 1.58-2.26538 1.5452-3.49036 4.58569-4.78679 7.805-.50935 1.26458-1.0364 2.57287-1.64837 3.84651a32.13733 32.13733 0 01-41.63033 14.45886 58.21646 58.21646 0 01-8.2744-5.23356 45.742 45.742 0 00-8.18794-5.05394c-10.81387-4.67686-23.84188.523-32.86549 5.70731-2.626 1.50842-5.28745 3.17-7.86169 4.77579-8.28558 5.17108-16.85325 10.51707-26.79207 12.58821a32.844 32.844 0 01-3.80873.56099z" fill="#f55f44"></path><path d="M717.78243 669.50531s49.05985 4.199 56.392 75.83164M640.13822 762.19768s-23.21023-58.1832 52.57925-98.00725M658.91661 747.4881s-10.697-30.17572 12.71-49.3098M703.50247 695.36227s20.3343 14.26591 13.89313 54.99074M741.08737 654.89778s33.45985 15.11414 46.26885 69.19675M692.27747 659.20983s19.3944-7.73675 33.312 2.07657M678.22669 772.88733s18.78206 19.42252 85.66635-7.56808M655.86102 667.44646s-25.31123 20.3062-24.95556 58.42278M653.08778 761.05367s-4.92071 12.48145 8.00075 22.38276M771.65789 773.66833s-6.85306 24.6989-21.06275 22.94255M729.72549 708.10405s10.0211 11.16144 5.27639 25.63513M680.00747 713.50021s-7.55707 16.72994-1.43245 29.2395M690.9648 712.53221s8.64486 18.31028 2.552 28.88749" fill="none" stroke="#000" stroke-miterlimit="10" opacity=".2"></path></svg>
