<svg xmlns="http://www.w3.org/2000/svg" viewBox="0 0 92.73 142.25">
    <path d="M46.38 142.25A46 46 0 01.05 94c.32-7.21 3.09-13.88 5.74-20.5 6.8-17 15.7-32.9 24.93-48.64 4.7-8 9.5-16 14.53-23.77C46-.16 46.43-.51 47.36 1c14.64 23.33 29 46.81 39.46 72.4 3.26 8 6.21 16.06 5.89 25-.74 21-17.61 40.11-38.39 43.27a51.5 51.5 0 01-7.94.58z" fill="#cb3d21"/>
    <!--<path d="M44.54 124.31c-14.84-.56-27.09-13.67-26.69-28.58a6.93 6.93 0 016.69-7 6.86 6.86 0 017.37 6.51c.33 4.46 1.6 8.4 5.12 11.44a14.62 14.62 0 009.34 3.47 6.92 6.92 0 016.63 4.77 7.24 7.24 0 01-2.3 8.07c-1.84 1.54-4 1.37-6.16 1.32z" fill="#f6ccbd"/>-->
</svg>
