<svg xmlns="http://www.w3.org/2000/svg" viewBox="0 0 24 24"><path d="M 11.998047 1.9980469 C 7.0395307 1.9980469 2.9980469 6.0395307 2.9980469 10.998047 C 2.9980469 11.330807 3.0439866 11.695436 3.0878906 12.068359 C 3.1098426 12.254821 3.1322046 12.430632 3.1503906 12.566406 C 3.1594806 12.634296 3.1670491 12.691697 3.1738281 12.738281 C 3.1793381 12.776111 3.1810784 12.796621 3.1933594 12.857422 C 3.1937831 12.859622 3.1948925 12.863034 3.1953125 12.865234 C 3.6784282 15.40593 5.0508635 18.807687 7.7792969 22.03125 L 9.3066406 20.740234 C 6.8134748 17.794633 5.5702301 14.656964 5.1582031 12.484375 L 5.15625 12.470703 L 5.1523438 12.457031 C 5.1746668 12.55888 5.1594469 12.484539 5.1542969 12.449219 C 5.1491569 12.413879 5.1411565 12.363079 5.1328125 12.300781 C 5.1161235 12.176181 5.0947668 12.008522 5.0742188 11.833984 C 5.0331228 11.484908 4.9980469 11.050287 4.9980469 10.998047 C 4.9980469 7.1205628 8.1205628 3.9980469 11.998047 3.9980469 C 14.348276 3.9980469 15.799509 4.7661509 16.808594 5.7246094 L 18.1875 4.2753906 C 16.844584 2.9998491 14.805818 1.9980469 11.998047 1.9980469 z M 11.792969 6.0039062 C 11.6266 6.01063 11.459128 6.0249233 11.291016 6.0488281 C 8.5636938 6.4391581 6.4330831 9.089888 7.0175781 12.185547 L 8.9824219 11.814453 C 8.5950534 9.7628347 9.9263883 8.2638197 11.572266 8.0273438 C 13.200469 7.7958206 14.702523 8.9048437 14.960938 10.525391 L 14.962891 10.541016 L 14.966797 10.556641 C 15.054497 11.008916 15.944902 14.719657 20.566406 17.146484 L 21.496094 15.375 C 17.517598 13.285827 16.943984 10.249506 16.929688 10.175781 C 16.514198 7.6795854 14.277352 5.9035006 11.792969 6.0039062 z M 20.267578 7.7265625 L 18.34375 8.2734375 C 18.492938 8.7963442 18.671567 9.429533 18.908203 10.037109 C 19.14484 10.644686 19.406503 11.241395 19.947266 11.722656 L 21.277344 10.228516 C 21.200106 10.159777 20.958598 9.7909701 20.771484 9.3105469 C 20.584371 8.8301236 20.41739 8.2516558 20.267578 7.7265625 z M 12.988281 10.857422 L 11.007812 11.138672 C 11.007812 11.138672 11.862704 16.675077 17.892578 20.238281 L 18.910156 18.517578 C 13.568031 15.360782 12.988281 10.857422 12.988281 10.857422 z M 10.109375 14.683594 L 8.3007812 15.539062 C 9.0915698 17.210743 10.365156 19.222332 12.390625 21.107422 L 13.753906 19.642578 C 11.941375 17.955668 10.810586 16.165913 10.109375 14.683594 z"></path></svg>
