<svg xmlns="http://www.w3.org/2000/svg" viewBox="0 0 24 24">    <path d="M 12 2 C 9.244163 2 6.7523061 3.131365 4.9414062 4.9414062 L 3 3 L 3 8 L 8 8 L 6.3535156 6.3535156 C 7.7994269 4.9056847 9.7855073 4 12 4 C 16.430666 4 20 7.5693339 20 12 L 22 12 C 22 6.4886661 17.511334 2 12 2 z M 11.064453 7 C 10.935453 7 10.8275 7.0966094 10.8125 7.2246094 L 10.695312 8.2363281 C 10.211311 8.4043017 9.7738964 8.6598036 9.3945312 8.9882812 L 8.4570312 8.5839844 C 8.3390312 8.5329844 8.2026719 8.5774531 8.1386719 8.6894531 L 7.2011719 10.310547 C 7.1361719 10.421547 7.1665313 10.563625 7.2695312 10.640625 L 8.078125 11.240234 C 8.0307023 11.48651 8 11.739891 8 12 C 8 12.260109 8.0307023 12.51349 8.078125 12.759766 L 7.2695312 13.359375 C 7.1665313 13.435375 7.1371719 13.577453 7.2011719 13.689453 L 8.1386719 15.310547 C 8.2026719 15.422547 8.3390312 15.468969 8.4570312 15.417969 L 9.3945312 15.011719 C 9.7738964 15.340196 10.211311 15.595698 10.695312 15.763672 L 10.8125 16.775391 C 10.8275 16.903391 10.935453 17 11.064453 17 L 12.935547 17 C 13.064547 17 13.1725 16.903391 13.1875 16.775391 L 13.304688 15.763672 C 13.789173 15.59553 14.227802 15.340666 14.607422 15.011719 L 15.542969 15.414062 C 15.660969 15.465063 15.797328 15.420594 15.861328 15.308594 L 16.798828 13.6875 C 16.863828 13.5765 16.833469 13.434422 16.730469 13.357422 L 15.923828 12.757812 C 15.970992 12.512182 16 12.25938 16 12 C 16 11.739891 15.969298 11.48651 15.921875 11.240234 L 16.730469 10.640625 C 16.833469 10.564625 16.862828 10.422547 16.798828 10.310547 L 15.861328 8.6894531 C 15.797328 8.5774531 15.660969 8.5310312 15.542969 8.5820312 L 14.605469 8.9882812 C 14.226104 8.6598036 13.788689 8.4043017 13.304688 8.2363281 L 13.1875 7.2246094 C 13.1725 7.0966094 13.064547 7 12.935547 7 L 11.064453 7 z M 12 10 C 13.105 10 14 10.895 14 12 C 14 13.105 13.105 14 12 14 C 10.895 14 10 13.105 10 12 C 10 10.895 10.895 10 12 10 z M 2 12 C 2 17.511334 6.4886661 22 12 22 C 14.755837 22 17.247694 20.868635 19.058594 19.058594 L 21 21 L 21 16 L 16 16 L 17.646484 17.646484 C 16.200573 19.094315 14.214493 20 12 20 C 7.5693339 20 4 16.430666 4 12 L 2 12 z"></path></svg>
