<svg version="1.0" xmlns="http://www.w3.org/2000/svg" viewBox="0 0 783 483"><style>.st1{fill:#fff}.st2{fill:#fab894}.st3{fill:#faf1e7;stroke:#000;stroke-width:4;stroke-linecap:round;stroke-miterlimit:10}.st4{fill:#fbb994}.st6{fill:#2c1804}.st8{fill:#000002}.st9{fill:#080808}.st11{fill:#7b7671}.st12{fill:#514f04}.st13{fill:#f9f0e6}.st14{fill:#e7a7a6}.st15{fill:#0a0a09}.st16{fill:#c5c4aa}.st17{fill:#e3a787}.st18{fill:#0f0902}.st19{fill:#2a1602}.st20{fill:#fefdfd}.st21{fill:#f6f6f8}.st22{fill:none;stroke:#000;stroke-width:3;stroke-miterlimit:10}.st23{fill:#2a1603}.st31{display:inline;fill:#faf1e7;stroke:#000;stroke-width:4;stroke-linecap:round;stroke-miterlimit:10}.st32,.st33,.st34{display:inline;fill:#080808}.st33,.st34{fill:#2a1602}.st34{fill:#fefdfd}.st35{fill:#e7a7a6}.st35,.st37,.st40{display:inline}.st40{fill:none;stroke:#000;stroke-width:3;stroke-miterlimit:10}</style><g id="Layer_1"><path d="M778.1 231.4c-.6 1.5-3 12.5-3.5 14-6.2 18.4-6.7 38.9-16.5 55.6-11.6 19.8-24.3 41.9-40.2 58.5-7.8 8.1-20.6 10.1-28.9 17.6-12.3 11.1-16.1 28-30.1 36.8-21.8 13.8-49.9 20-74.3 28.2-14.3 4.8-23.9 10.3-38.8 12.9-13.3 2.3-15.3 8.2-28.7 8.5-9.7.3-33.3 8.8-43 8-9.6-.8-21.8-8-31.3-9.8-21-3.9-39.9-4.8-59-14.5-6.3-3.1-24.5-16.6-30.6-20l-2.3-12.3c-1.2-5-2-10.1-2.3-15.3-.4-7.9.5-15.5 3.5-22.8 4.3-10.4 9.6-20.2 17.9-28.1 6.6-6.3 14.1-10.4 23-12.2 9.6-2 19.2-4.3 29-3.9 2.7.1 5.3 1.1 8 1.7.4.1.7.1 1 .1.2.2.4.3.6.5 4.4 2.4 8.7 5.2 13.3 7.3 6 2.7 12.1 5.1 18.3 7.1 6.8 2.2 13.8 4 20.7 5.4 5.4 1.1 10.9 1.4 16.3 2.2 2.9.4 5.9 1.2 8.8 1.3 4 .2 8-.1 12-.1 1.9 0 3.8.2 5.7.1 5.9-.5 11.8-1 17.8-1.7 4.6-.5 9.2-.8 13.7-1.9 12.3-2.9 24.5-6.3 36.8-9.4 8.2-2.1 15.2-6.8 22.7-10.5 9.3-4.7 18.7-9.3 28-14.1 5.3-2.8 10.5-6 15.7-8.9 2.5-1.4 5.2-2.5 7.8-3.8 1.8-.4 3.5-.6 5.2-1.1 3.6-1.1 7.2-2.2 10.6-3.5 8.1-3.1 15.6-6.9 21.7-13.4 8.7-9.4 16.1-19.9 23-30.6 2-3.1 3.9-6.4 5.3-9.8 3.1-7.9 2.5-16.3 2-24.6-.2-2.8.9-10.3.6-13.2-20.4 6.3-47.7 16.7-71.5 23C644.5 244 422 257.4 422 257.4c-1.6-.6-21.2-.6-25.4-.5-4.1.1-13.6 2.4-19.2 3.2-5.6.9-16 4-23.4 5.6-7.4 1.6-8.1 2.9-14 3.9s-7.1 3.6-10.8 9.8c-3.7 6.2-.5.4-5.9 8.7-5.4 8.2-13.4 14.2-16.5 17.1-3.1 2.9-11.4 6.5-16.4 8.5s-14.9 4-18.9 4.1c-4 .1-20-5.2-24.9-6.3-4.9-1.1-11.3-3.9-17.1-2.5-4.2 3-4.4 2-8.5 2.5s-10.4-2.9-10.4-2.9l-35.2-13.1s-13.6-3.8-25.6-9.9l.6 2.4s1.3 6.7-1.3 9.1c-2.6 2.5-5.3 3.6-6.8 4.4s-3.1.7-8.2-.7c-5.1-1.3-5.3-3.2-8.2-2.2-1.2 2.7-3.7 5.5-6.8 6.2-3.2.8-12.8-1.1-14.8-1.6-1.9-.5-5.4-2.7-7.5-2.9-2.1-.2-2.9-1.3-5.4-1.8s-4 .6-6.8-.1-6.9-3.2-9.5-5c-2.6-1.8-1.4.1-4.4-2.4-3-2.5-2.2-4.2-3.1-5.8-1.3.2-4.5.1-5.2 0s-3.3-1.1-5.5-2.9c-2.2-1.8-2.5-2.6-3.1-6-.6-3.4 1.2-6.3-.3-7.1.1-1.9-.4-7.5-.7-11.2-.3-3.7.9-9.6 1.3-12.6s8.5-26.6 9.5-28.7l4.2-13.8 9-57.2-.7-2.1c-1.1-14.2-.9-28.3 3.2-42.2 2.1-6.9 3.1-14.1 7.1-20.2 5.9-9.1 11.8-18.4 20.7-25.2 20.2-15.6 43.3-24.6 68.2-29 9.8-1.7 19.8-1.5 29.7-.4 7.9.9 15.8 1.2 23.7 1.5 8.9.3 17.8.3 26.7.5 13.7.4 27.4 1 41.1 1.2 11.7.2 23.5.1 35.2-.4 9.7-.4 19.5-2 29.2-2s18.6-3.1 27.9-4.9c13.9-2.6 27.8-5.1 41.7-7.5 11.7-2 23.4-3.9 35.2-5.7 16.8-2.6 33.5-5.6 50.5-5.7 11.6 0 23.2-.4 34.8-.9 24.7-1 48.9 2.3 73 7.4 16.5 3.5 32.9 6.9 48.9 12.2 12 4 23.8 8.3 35.5 13.1 14.9 6.1 26.8 16.5 37.6 28.2 3 3.3 6.2 6.6 8.6 10.3 1.6 2.5 2.1 5.7 3 8.6.7 2.2 1.3 4.5 1.7 6.7.7 4.3 1.3 8.5 1.9 12.8.8 6.4 1.7 12.9 2.3 19.4.8 8 1.3 16.1 1.9 24.1 1 15 2.4 29.9 6.2 44.6 3 11.6 4.7 23.4 5.6 35.4.5 2 .7 4 .9 5.9z" fill="#faf1e7"/><path class="st1" d="M761.8 98.2c-2.8-5.3-6-13.2-9-16.5C742 70 730.1 59.6 715.2 53.5c-11.7-4.8-23.5-9.1-35.5-13.1-16-5.3-32.4-8.7-48.9-12.2-24.1-5.1-48.3-8.4-73-7.4-11.6.5-23.2.9-34.8.9-17 .1-33.7 3.1-50.5 5.7-11.8 1.8-23.5 3.7-35.2 5.7-13.9 2.4-27.8 4.9-41.7 7.5-9.3 1.8-18.2 4.9-27.9 4.9s-19.5 1.6-29.2 2c-11.7.5-23.5.6-35.2.4-13.7-.2-27.4-.8-41.1-1.2-8.9-.2-17.8-.2-26.7-.5-7.9-.3-15.8-.6-23.7-1.5-9.9-1.1-19.9-1.3-29.7.4-24.9 4.4-48 13.4-68.2 29-8.9 6.8-13.9 16.7-20.7 25.2-7.1 8.9-11.5 11.4-15.6 16.9.6-4.7 1.5-9.5 2.9-14.2 2.1-6.9 3.1-14.1 7.1-20.2 5.9-9.1 11.8-18.4 20.7-25.2 20.2-15.6 43.3-24.6 68.2-29 9.8-1.7 19.8-1.5 29.7-.4 7.9.9 15.8 1.2 23.7 1.5 8.9.3 17.8.3 26.7.5 13.7.4 27.4 1 41.1 1.2 11.7.2 23.5.1 35.2-.4 9.7-.4 19.5-2 29.2-2s18.6-3.1 27.9-4.9c13.9-2.6 27.8-5.1 41.7-7.5 11.7-2 23.4-3.9 35.2-5.7 16.8-2.6 33.5-5.6 50.5-5.7 11.6 0 23.2-.4 34.8-.9 24.7-1 48.9 2.3 73 7.4 16.5 3.5 32.9 6.9 48.9 12.2 12 4 23.8 8.3 35.5 13.1 14.9 6.1 26.8 16.5 37.6 28.2 3 3.3 6.2 6.6 8.6 10.3 1.6 2.5 2.1 5.7 3 8.6.7 2.2 1.3 4.5 1.7 6.7.5 2.8.9 5.6 1.3 8.4z"/><path class="st2" d="M174.1 292.8s-31.6-25.2-38.7-36.6-10.8-33.7-10.8-33.7l-1.5-6.2c-.4-1.6-3.6-4.1-3.6-4.1s-48.5-7.5-52.3-8.9c-1 3.1-4.2 13.8-4.2 13.8l-7.8 21.4-2.7 11.7s5-6.7 15.4-12.6c10.4-5.9 20.6-11.7 28.7-13.8 6.2-1.6 14.3-4.4 20-5.6-.4 5.2-1.3 20.3 0 28.7 1.5 10.2 17.7 29.1 26.7 35.8 9 6.8 30 13 30 13l1.8-1.8-1-1.1z"/><path class="st4" d="M344.2 35.5c-.7.6-1.5 1.3-2.2 2-.1.2-.3.3-.4.5-.2.1-.3.2-.5.3-.1.1-.3.1-.4.1-.2.1-.3.3-.5.4-.2.2-.5.3-.8.5l-.3.3c-3.4 2.5-6.7 4.9-10.1 7.3-.7.6-1.5 1.2-2.2 1.8l-.4.4c-2.5 2.1-5.1 4.3-7.6 6.4-.6.7-1.3 1.4-1.9 2.1.3.5.9.9.9 1.4 0 5.7.2 11.5 0 17.3-.2 5.5-.8 10.9-1.3 16.4.8-.1 1.6-.1 2.4-.3 2.9-.7 5.8-1.3 8.7-2 .6-2.3 1.2-4.6 1.9-6.7.2-1.2.3-2.4.7-3.5 2.5-8 5.1-16 7.8-24 2.2-6.6 4.5-13.1 6.7-19.6-.2-.3-.3-.7-.5-1.1z"/><path d="M775.8 265.6c-6.4 21.3-14.8 41.8-25.2 61.5-3.6 6.8-7 13.7-10.9 20.3-3.6 6-8.3 11.1-13.7 15.6-7.2 5.9-13.9 12.3-20.9 18.3-6.7 5.7-13.9 11-20.4 16.9-10.7 9.7-22.5 18.1-34.3 26.4-15.6 10.9-31.7 21-49.5 27.7-6.8 2.6-14 4.4-21 6.5-9.7 3-19.5 5.8-29.1 9-4 1.3-7.7 3.4-11.7 4.7-13.4 4.2-27 7.1-41 8.1-15.6 1-31.1.7-46.5-2-13.5-2.3-27-4.6-40.5-6.8-3.6-.6-7.3-1-10.8-1.7-6.8-1.2-12.9-4.1-18.4-8.3-5.5-4.3-11.2-8.5-16.4-13.2-5.6-5.1-9.2-11.7-11.5-18.9-1.5-4.8-2.9-9.5-4-14.4l4.2 3.9c6.1 3.4 12.2 7 18.5 10.1 19.1 9.7 39.3 16.4 60.3 20.3 9.5 1.8 19.2 2.9 28.8 3.7 9.7.8 19.4 1.1 29.1.8 13.4-.3 26.7-1.9 40-4.2 14.9-2.6 29.5-6.2 43.8-11 24.4-8.2 47.5-19.1 69.3-32.9 14-8.8 27.4-18.4 39.7-29.5 8.3-7.5 16.6-15.1 24.4-23.2 15.9-16.6 29.7-35 41.3-54.8 9.8-16.7 18.1-34.2 24.3-52.6.5-1.5 2.9-12.5 3.5-14v.1c.3 3.1.7 6.1 1.2 9.1 1.6 8.5-.2 16.5-2.6 24.5z" fill="#fdba95"/><path class="st6" d="M343 222c.2-1.6 1.9-4.1 1.9-5.7 0-.7-.3-1.3-.5-2 .1-.2.1-.5.2-.7.3-.2.6-.3.8-.5.4-.3.9-.6 1.3-.9.5-.3.9-.6 1.4-.9.7-.2 1.4-.3 2-.7 4.4-2.7 8.9-5.6 13.4-8.2 4.7-2.7 9.6-5.2 14.4-7.8-.2 1.3-.4 2.7-.7 4-.1.3-.2.7-.2 1l-.3 1.2c-.1.3-.1.7-.2 1-.2 1.2-.5 2.3-.7 3.5-.1.3-.1.7-.2 1-.1.6-.2 1.1-.2 1.7-.1.5-.1 1-.2 1.5 0 .6 0 1.2-.1 1.8-.3.2-.6.5-1 .5-10.2 2-19.8 5.4-29.4 9.3l-1.7.9z"/><path d="M343.6 223.9c10.2-4.4 20.8-7.7 31.7-10.3.1.9.2 1.8.3 2.6-.1.7-.1 1.4-.2 2.2-.1.9-.2 2-.3 2.9-.1.9-.1 1.8-.2 2.7-.1.6-.1 1.3-.2 2v1.9c-.7 6.2-1.5 12.4-2.3 18.6-.5 3.9-.7 8-3.3 11.5-.6.8-.5 2.2-.7 3.3-6.9 3-14.4 4.6-21.7 6.1-3.3.6-6.4 2-9.6 2.9-.7.2-1.5.2-2.5.3.2-1.1.5-2 .5-2.8 0-4.4-.1-8.9.1-13.3.1-4 .3-8.1 1-11.9.4-2.1 2.2-3.9 2.9-6 1.7-4.2 3.1-8.4 4.5-12.7z" fill="#2b1302"/><path class="st2" d="M366.4 262.8s6.4-18 7.1-34.5c26.4-5.6 122.1-38.2 188.6-36.2s68.7 11.4 95.9 10.3 29.7 4 40.8-5.6 25.4-22.7 30.4-36c5-13.2.7-36-.2-42.6 11.1 13.9 15.9 45.9 14.7 68.4s-7 25.6-7 25.6-75.3 25.4-93.1 29.4-222.5 16.2-222.5 16.2l-25.4-.5-29.3 5.5z"/><path class="st6" d="M319 140.6l-3.8-30 14.3-27.1s9 7.7 23.4 24 15.4 21.5 19.6 29.9c4.2 8.4 8.9 17.1 8.8 26.7-.2 9.6-1.6 22.6-2.4 26.4s-2.6 12.3-3.4 17.5.3 7.5 0 10.4-1.2 19.9-3 28c-1.8 8.1-4.8 16.4-4.8 16.4l-16.6 4.7s-15.8 7.2-16.3 3c-1.2-9.8.3-22.4.3-22.4s2-9.8 6.4-17.5c4.4-7.7 4.2-20.3 3.1-33.2-3.1-17.8-6-25.2-11.9-33.6L319 140.6z"/><path class="st8" d="M431.2 202.5l-3.6 94.9 6.6 32.3 3.2 8.2 21.2 9.3 18.5 7 37 5.3 17.7-31.6-25.2-131.4-74.3-1.9z"/><path class="st9" d="M731.5 216.9l1.5-3.6M731.5 216.9l1.5-3.6"/><path d="M461.7 71.4c7.6-1.4 15.1-2.5 22.7-3.5 4.8-.6 9.6-1.1 14.4-1.4 9.7-.7 19.3-1.4 29-1.8 5.7-.2 11.3.1 17 0 6.3-.1 12.5-.6 18.8-.4 8.6.3 17.3.7 25.9 1.4 9.3.8 18.6 1.8 27.9 3.2 5 .7 10 2.3 14.9 3.8 3.5 1.1 6.9 2.6 10.2 4.3 2.6 1.3 2.7 4.3.3 6-2.2 1.6-4.7 2.8-7.2 4-.5.2-1.4-.2-2.1-.3-6.9 1.5-13.7 3.3-20.7 4.5-7.2 1.3-14.6 2-21.9 2.8-8.2.9-16.4 1.7-24.7 2.1-9.6.5-19.3.5-28.9.6-5.5 0-11 .2-16.4-.1-10.7-.5-21.4-1.3-32.1-2.1-4.2-.3-8.4-1-12.6-1.5l-3.3-.4c-8-1.7-16.1-3.3-24.1-5-2.5-1.1-5.4-1.7-7.6-3.2-2.1-1.4-2.3-3.9.3-5.7 6.1-4.3 13.1-6 20.2-7.3z" fill="#1e2177"/><path class="st11" d="M181.3 289.4c-.3.2-.6.3-.9.5.2-.2.5-.3.9-.5zm-1.9 1.4l-.5.5.5-.5zm.5-.5l-.5.5.5-.5zm.4-.4l-.5.5.5-.5z"/><path class="st12" d="M633.6 86.8c-6.9 1.5-13.8 3.3-20.7 4.5-7.3 1.2-14.6 2-21.9 2.8-8.2.8-16.5 1.7-24.7 2.1-9.6.5-19.3.5-28.9.6-5.5.1-10.9.2-16.4-.1-10.7-.6-21.4-1.3-32.1-2.1-4.2-.3-8.4-1-12.6-1.5 1.4-.4 2.7-.7 4.2-1.2-1.7-.9-2.9-.8-7.4.9-8-1.7-16.1-3.3-24.1-5 1.8-1.3 3.5-3.1 5.5-3.9 8-3.3 16.5-4.6 25-5.9 16.9-2.5 33.8-3.7 50.8-4 15.3-.3 30.7.1 45.9.8 12 .6 24.1 2 36 3.6 6 .8 11.8 2.9 17.6 4.8 1.5.5 2.6 2.4 3.8 3.6zm-70.4 5.4c.2.3.5.9.7.9 4.3 0 8.7 0 13-.1.6 0 1.3-.4 1.9-.5 0-.1-.1-.2-.1-.3h-8.3c-.2-.3-.3-.5-.5-.8.9-1.6-.6-1-1.1-1-5.2.1-10.5.3-15.7.5-.6 0-1.1.3-1.9.6h11.9c0 .2 0 .5.1.7zm22.5-10.1c0-.1.1-.3.1-.4-.3-.2-.6-.6-1-.7-8.2-2.3-16.6-4-25.2-3.4-13.3.9-26.3 3.6-39.2 7.1-11.2 3-22.4 5.4-34.1 3.5-.3 0-.6.2-1.5.6 1.3.3 2 .6 2.7.7 7.7 1 15.4.4 23-1.2 11.3-2.5 22.6-5.1 33.9-7.6 13.4-2.9 26.7-2.6 39.9 1.3.5.2 1 .1 1.4.1zm-35.3 2.3c15.9-.9 31.7-1.9 47.5.6-15.8-3.7-31.7-2.7-47.5-.6zm20.4 2.2c-8.7-1.4-38.4 2.6-40.6 5.5 13.6-3.7 27.2-4.3 40.6-5.5zm17.7 3.3c0-.3.1-.7.1-1-7.4-.3-14.8-1.3-22.2-.7v.7c7.4.4 14.8.7 22.1 1zm.3-10.7c6.1.6 12 1.3 17.9 1.9-2.8-2-16.2-3.2-17.9-1.9zm31 7.4c0-.3.1-.7.1-1-5.9-.8-11.7-1.7-17.6-2.5 0 .3-.1.7-.1 1 5.9.8 11.8 1.6 17.6 2.5zm-144.2-5.5c-3.6-.3-11 3.2-12 5.5 3.9-1.8 7.7-3.5 12-5.5zm28.2-2.9c.1.3.1.6.2.9 4.2-1 8.4-1.9 12.6-2.9 0-.2-.1-.5-.1-.7-4.4 0-8.5 1.7-12.7 2.7zm-26 6.1c-.1-.3-.2-.7-.3-1-3 1.1-6 2.3-9 3.4l.3.9c3-1 6-2.1 9-3.3zm38.5-5.3c-.1-.3-.2-.7-.2-1-3 .7-6 1.5-9 2.2.1.3.2.6.2.9l9-2.1z"/><path class="st13" d="M663.3 202.3c-.6-6-1.1-12-1.7-18l-1.5-14.7c-.1-.7.1-1.7.5-2.2 8.5-8 17.8-14.7 29.5-16.9 14.2-2.7 24.6 4.8 27.1 19.2.4 2.6.3 5.2.5 7.8-2.6 3.2-5.2 6.3-7.7 9.6-6.3 8.2-14.9 12.7-24.8 14.2-7.2 1-14.6.7-21.9 1z"/><path class="st14" d="M266.7 128.2c.8-2.6 1.6-5.2 2.5-7.8-.2.7.4 1.5.8 2 .5.7 1.1 1.3 2 1.6.4.1.8.1 1.2.2.7.2 1.3.7 2 .9 1.1.3 2.3.3 3.4.2 1.1-.1 2.3.1 3.4.2 1 .1 2.1.2 3.1.4.8.2 2.1.9 2.9.9 6 2.6 12.4 4.6 18.6 6.9-1.2 1.2-2.4 2.5-3.5 3.7-3.7-.3-7.4-.5-11-.8-2.4-.2-4.9-.5-7.3-.8-3.7-.5-7.3-1-10.9-1.6s-5.8-2.8-7.2-6z"/><path class="st2" d="M303.1 137.4c1.2-1.2 2.4-2.5 3.5-3.7-.8-.6-1.5-1.3-2.3-1.7-1.4-.8-3.1-1.2-4.5-2.1l.1-.3c.2-.2.3 0 .5 0 .5 0 1 .4 1.5.5 1 .4 1.9.7 2.9 1.1l5.7 2.1c.1-.1.2-.2.2-.3-.8-.7-1.6-1.4-2.4-2 .9-2.4 1.9-4.8 2.8-7.2 2.9-.2 5.7-.4 8.6-.6-.1 5.8-.1 11.6-.2 17.4-.1 1.7.1 3.1 1.4 4.2-1.7 1.5.3 2.4.7 3.5-.8 0-1.9.3-2.5-.1-5.5-3.6-10.8-7.2-16-10.8z"/><path class="st8" d="M276.5 56.7c3.6-2 7-4.1 10.7-5.8 2.6-1.2 5.4-1.8 8.1-2.7l.5.5c-2.1 1.1-4.1 2.3-6.2 3.3-3.8 1.8-7.7 3.6-11.5 5.3-.4.2-.9.2-1.3.3l-.3-.9z"/><path class="st15" d="M343.7 203.7c.5-.8 1-1.6 1.4-2.5.2 3.1.3 6.1.5 9.2-.6.3-1.2.6-1.8 1 0-2.6 0-5.2-.1-7.7zM343.8 214.9l.9-.6c.2.7.6 1.3.5 2 0 1.6-.3 3.2-.4 4.8l-1.8.9c.3-2.3.5-4.7.8-7.1z"/><path class="st16" d="M330.8 218.6c.2-.2.3-.4.5-.6-.2.2-.3.4-.5.6z"/><path class="st11" d="M332.2 223c.1-.2.3-.3.4-.5-.1.1-.3.3-.4.5 0-.1 0 0 0 0zm0-.1c-.1.1-.1.2-.2.3.1-.1.1-.2.2-.3 0 .1 0 0 0 0z"/><path class="st14" d="M316.8 57.6c.3.5.9.9.9 1.4.1 5.8.3 11.6 0 17.3-.2 5.5-.9 10.9-1.3 16.4-3.4 1.3-6.8 2.6-10.2 4-8.3 3.5-15.8 8.2-23.2 13.4-.3.2-.6.4-1 .6-.1-2.5 3.6-7.3 13.4-15.6 5.3-4.5 11.3-8.1 17-12.2-.8.1-1.8.2-2.8.3 0-.1-.1-.2-.1-.3 2.6-1.2 5.1-2.3 7.7-3.5 0-.2-.1-.4-.1-.6-1.2.1-2.3.2-3.6.3.6-.7 1-1.2 1.5-1.8-.1-.1-.2-.2-.2-.3-4.5 2.1-9.1 4.2-13.6 6.2-.1-.1-.1-.2-.2-.2l4.8-3.9c.7-.6 1.4-1.1 2.2-1.6-.2-.2-.3-.5-.5-.7-2.7 1.8-5.6 3.3-8 5.3-4 3.4-7.9 6.8-12.5 9.3-.6.3-1.3.5-2 .8 4.4-5.3 8.7-10.6 13.4-15.7 5.9-6.4 12-12.6 18.1-18.9h.3z"/><path class="st17" d="M507.8 472.4c12-2.4 23.9-5.2 35.6-8.3 8.6-2.3 17.1-5.4 25.6-8.1 9.2-2.9 18.5-5.7 27.7-8.7 5-1.6 9.9-3.5 14.9-5.1.8-.3 1.8 0 2.7 0-6.6 2.8-13 6.1-19.7 8.3-13.5 4.5-27.1 8.3-40.7 12.5-4.8 1.5-9.6 2.8-14.1 4.9-7.4 3.4-15.4 4.7-23.2 6.3-9.8 2-19.8 3.2-29.8 3.2-3.2.1-6.4-.1-9.5-.2 1.9-.4 3.7-1 5.6-1.3M357 428.3c1.1 1.4 2.4 2.7 3.4 4.2 2.9 4.8 6.5 8.9 10.5 12.8 8 7.8 17.6 12.8 27.9 16.5 7.3 2.6 15 4.1 22.6 6 3.4.8 6.8 1.5 10.2 2.3.7.2 1.2.9 1.8 1.4-6.6-1-13.1-2-19.7-2.9-3.5-.5-6.9-1-10.4-1.6-7.5-1.2-14.2-4-20.2-8.7-7.1-5.6-14.8-10.5-20.2-18-2.7-3.7-4.9-7.6-5.9-12zM618 440.2c-.3-2.5 2-3 3.4-3.9 4-2.6 8.1-5 12.2-7.4 5.5-3.3 10.9-6.6 16.4-9.9 1.5-.9 3-2 4.5-2.9.5-.3 1.1-.2 1.7-.3-5.1 3.7-10.1 7.7-15.4 11.1-7.4 4.6-15.2 8.9-22.8 13.3zM657.5 414.9c.5-.3.9-.6 1.4-1-.5.3-.9.6-1.4 1zm-1.3.9c.4-.3.9-.6 1.3-.9-.4.3-.9.6-1.3.9z"/><path class="st18" d="M274.7 108c-.3.4-.6.9-.9 1.3.3-.4.6-.9.9-1.3zm-.9 1.3c-.2.3-.3.6-.5.9.2-.3.4-.6.5-.9zm-.4.9c-.2.3-.3.6-.5.9.2-.3.3-.6.5-.9zm66.8-71.5c-.3.2-.6.3-.8.5.3-.1.6-.3.8-.5zm-65.1 68.8c-.1.2-.2.3-.4.5.1-.2.2-.4.4-.5zM272.9 111.1c0 .1-.1.3-.1.4 0-.1-.1-.2-.1-.3 0-.1.2-.1.2-.1zm67.9-72.8c-.2.1-.3.3-.5.4.1-.1.3-.3.5-.4zm.8-.4c-.2.1-.3.2-.5.3.2-.1.4-.2.5-.3zm.4-.5c-.1.2-.3.3-.4.5.2-.2.3-.4.4-.5z"/><path class="st19" d="M118.8 196.9c-3.2-.9-6.4-1.7-9.5-2.7-6-2-12-4.1-18.1-6.2 1.3.1 2.7.1 4 .4 6.8 1.6 13.6 3 20.3 5 5.8 1.8 11.4 4.3 17 6.6 1.1.4 1.9 1.5 2.9 2.2-3.8-1.3-7.5-2.7-11.3-4-.7-.2-1.4-.4-2.1-.5-1.1-.3-2.1-.5-3.2-.8zm18.8 6.3c-.3-.2-.6-.3-.9-.5.3.2.6.4.9.5zm-46.7-15.3c-.3-.1-.6-.3-.9-.4.3.1.6.2.9.4zm45.4 14.7l-.6-.3.6.3z"/><path class="st20" d="M485.8 375.2c-5.8.6-11.6 1.4-17.4 1.7-4.1.3-8.2.1-12.2 0-1.1 0-2.2-.6-3.7-1 .6-.5.7-.7.8-.7 8.8-.5 17.5-1 26.3-1.4 2.1-.1 4.1.2 6.2.3v1.1zM415.3 367.9c5.1-1.3 34.6-2.3 37.9-1.3-3.9 1.8-34.9 2.9-37.9 1.3zM589.4 365.6c-1.2 1.4-2.1 2.9-3.5 4-3.8 3-8.1 5-12.9 5.8-.6.1-1.2.1-1.7 0-.4-.1-.8-.6-.8-.9s.4-.9.7-1c6-1.3 10.8-4.9 16-7.8.5-.3 1.1-.5 1.6-.8.1.3.3.5.6.7zM404.3 355.4h23.3c-4.6 2.9-20.7 3.1-23.3 0zM564.5 372.9c-4 4.5-20.3 8.8-23.4 6.8 7.8-2.2 15.6-4.5 23.4-6.8zM484.5 382.4c6.8-2.1 13.5-4.3 20.6-6.5-3.6 4.9-17.8 9.1-20.6 6.5zM531.6 378.6c-5.9 4.1-14.6 5.5-17.5 2.9 5.8-1.2 11.6-2.3 17.3-3.5.1.2.2.4.2.6z"/><path class="st21" d="M392.3 210.8c0-.1.1-.2.1-.3.2-.1.4-.2.7-.3 0 .1.1.4 0 .4-.3 0-.6.1-.8.2z"/><path class="st11" d="M375.7 206.3c.1-.3.1-.7.2-1-.1.3-.1.7-.2 1z"/><path class="st16" d="M585.7 82.1c-.5 0-.9 0-1.4-.1-13.2-3.9-26.5-4.2-39.9-1.3-11.3 2.5-22.6 5.1-33.9 7.6-7.6 1.7-15.2 2.2-23 1.2-.7-.1-1.4-.3-2.7-.7.9-.4 1.2-.7 1.5-.6 11.7 1.9 22.9-.4 34.1-3.5 12.9-3.5 25.9-6.1 39.2-7.1 8.6-.6 17 1 25.2 3.4.4.1.6.4 1 .7 0 .2 0 .3-.1.4z"/><path class="st16" d="M550.4 84.4c15.8-2.1 31.7-3.2 47.5.6-15.8-2.5-31.7-1.5-47.5-.6zm20.4 2.2c-13.5 1.3-27 1.9-40.6 5.5 2.3-3 31.9-7 40.6-5.5zm17.7 3.3c-7.4-.3-14.7-.7-22.1-1v-.7c7.4-.6 14.8.3 22.2.7 0 .4 0 .7-.1 1zm.3-10.7c1.7-1.3 15.2 0 17.9 1.9-5.9-.6-11.8-1.3-17.9-1.9zm31 7.4c-5.9-.8-11.7-1.7-17.6-2.5 0-.3.1-.7.1-1 5.9.8 11.7 1.7 17.6 2.5 0 .3 0 .6-.1 1zM563 91.5h-11.9c.8-.3 1.4-.6 1.9-.6 5.2-.2 10.5-.4 15.7-.5.5 0 1.9-.6 1.1 1-2.2 0-4.5.1-6.8.1zm-87.4-10.4c-4.3 2-8.1 3.7-12 5.5.9-2.2 8.4-5.8 12-5.5zm28.2-2.9c4.2-1 8.3-2.6 12.7-2.7 0 .2.1.5.1.7-4.2 1-8.4 1.9-12.6 2.9 0-.3-.1-.6-.2-.9zm66.5 13.9h8.3c0 .1.1.2.1.3-.6.2-1.3.5-1.9.5-4.3.1-8.7.1-13 .1-.2 0-.5-.6-.7-.9 2.4.1 4.8 0 7.2 0zm-92.5-7.8c-3 1.1-6 2.2-9 3.4l-.3-.9c3-1.1 6-2.3 9-3.4l.3.9zm38.5-5.3l-9 2.1c-.1-.3-.2-.6-.2-.9 3-.7 6-1.5 9-2.2 0 .3.1.7.2 1z"/><path class="st12" d="M570.3 92.1c-2.4 0-4.8 0-7.1.1 0-.2-.1-.5-.1-.7 2.3-.1 4.5-.1 6.8-.2.1.3.2.6.4.8z"/><path class="st14" d="M118.8 196.9c1.1.3 2.1.6 3.2.8-1.1-.3-2.1-.5-3.2-.8zm189.5-66l-12.2-6.1c5.1-.4 10-.7 15-1-1 2.3-1.9 4.7-2.8 7.1zM312.4 115.6c-.9.1-1.7.3-2.6.4-4.2.5-8.4.8-12.6 1.5-2.1.4-4 1.5-6 2.3-.5.2-1 .2-2 .4 7.6-5 15.3-8.5 24-10.2v1.5c-.2 1.4-.5 2.7-.8 4.1z"/><path class="st4" d="M313.3 110s3.2-1.1 4.6-1.3c1.9-.3 3.7-.8 5.6-1.2-.6 2.5-1.2 5.1-1.7 7.6-3.1.2-6.2.3-9.4.5l.9-5.6zm13.5-18.2c-.4 2.1-.9 4.1-1.3 6.2-2.7.8-5.4 1.5-8 2.2-.8.2-1.6.4-2.4.5v-2.6c3.9-2 7.8-4.2 11.7-6.3z"/><path class="st14" d="M315.1 98.2v2.6c-3.8 1.6-7.5 3.3-11.3 4.9-1.8.8-3.5 1.6-5.3 2.3-.1-.1-.1-.2-.2-.3 1.9-1.1 3.8-2.3 5.7-3.4 3.7-2 7.4-4 11.1-6.1z"/><path class="st2" d="M324.8 100.9c-.2 1.3-.4 2.5-.6 3.8-1.4.1-2.9.3-4.3.4-.8.1-3.2.8-3.7 0 1.1-.9 2.7-1.4 4-2 1.5-.7 3-1.5 4.6-2.2zm-4.1 17.4c0 .6-.1 1.1-.1 1.7h-9.1c-.4 0-1.2.2-1.6-.1-1-.7 1.6-.7 2-.8 2.9-.2 5.8-.5 8.8-.8z"/><path class="st14" d="M292.2 111.1c2-1.1 4.1-2.2 6.1-3.3.1.1.1.2.2.3-2.1.9-4.2 2-6.3 3zm9.1-27.8c-.2.1-.4.1-.7.2l.5-.5c0 .1.1.2.2.3zm-16.8 9.8c.2-.3.3-.6.5-.9-.1.3-.3.6-.5.9zm7.7 18c-.2.1-.3.2 0 0-.4.1-.2 0 0 0z"/><path d="M312.6 295.9c.2-.7.3-1.3.5-2 .4-.9.8-1.9 1.1-2.8 1-2.7-3.2-4.3-4.6-1.9-.9 1.5-1.3 2.9-1.8 4.3-.5 1.1-1 2.2-1.6 3.3-.6.8-1.5 1.6-2.9 2.3-4.3 2.1-9.2 2.5-13.9 2.8-3.2.2-3.2 5.2 0 5 4.1-.3 8.3-.7 12.2-1.9.2 1.8 2.8 3.2 4.3 1.6 2.2-2.3 4.4-4.5 7.4-5.7 2.9-1.2 1.9-5.6-.7-5z"/><path class="st22" d="M320.7 144.8s11.4 16.8 15.2 25.3 5.4 16.4 5.7 17.8 3.4 11.1 3.2 18.4c-.2 7.3.2 7.2-.5 12.4s-7.4 19.6-7.4 19.6-1.6 1.3-1.8 4.5-.5 15.8-.5 15.8.1 8.4-.8 10.8-2 4.6-3.7 7.5"/><path d="M127.8 297.6c-1.5-.5-1.9-1.5-1.1-3 1.3-2.4 1.1-4.9.2-8-.8.9-1.4 1.4-1.8 2.1-1 1.8-1.8 3.8-2.7 5.6-.8 1.7-1.2 3.1.9 4-.8 3.1-3 5.2-6.2 5.3-6.2.2-12.6 0-17.9-3.7-2.6-1.8-6-2.6-7.9-5.8-2.8-4.9-3.3-9.6-1.4-14.8 1.4-3.8 2.8-7.5 6.3-10.2-.5 0-1.3-.1-1.5.1-1.3 1.9-3.7 2.8-4.6 5.3-1.6 4.3-3.7 8.3-4.2 13.1-.3 3.4.6 6.3 2 9.6-1.3 0-2.5.2-3.5 0-4.1-.8-7.4-3.4-10.8-5.6-2.8-1.8-4-4.3-4.4-7.1-.3-3-.4-6.2.6-9 .9-2.6 2.3-5.4 5.2-6.8.6-.3 1.2-.9 1.8-1.5-.6.1-1.2.2-1.9.2 2-2.3 4.3-4.2 7.3-5.1l-.1-.1c-3 .9-5.2 2.8-7.3 5.1-2.4 2.3-4.9 4.5-7.1 7.1-2.4 2.7-3.1 6-2.8 9.6-4.6.1-9-2.5-10.4-6.2-.2-.6-.3-1.4-.2-2.1.7-3.2 2.3-5.9 4.9-8.1 4-3.4 7.9-6.9 12.8-8.8h.2c-.2-.4-.3-.8-.5-1.2 2.7-1.1 5.2-2.1 7.9-3.1 0-.1 0-.1-.1-.2-2.7 1.1-5.3 2.1-8 3.2-6.3 2.3-12.7 4.4-17.7 9.6-.3-1.7-.5-3.4-.6-5.1l-.6.4.7 7.2.3 7.1.9 3.4 7.7 5.5h5.2l3.1 5.8 10.9 6.3 9.7 1.2 12.9 4.8 14.8 1.6 6.8-6.2 8.9 2.3c-2.1-1.1-4.6-3-6.7-3.8z"/><path d="M74.9 267.4c.6 0 1.2-.1 1.9-.2h.2c1.8-1.4 3.7-2.9 5.6-4.4l-.1-.1c-.1-.1-.2-.2-.3-.4-3 .9-5.3 2.8-7.3 5.1zM72.1 258.8v.1c3.2-.1 5.3-2.2 7.8-3.7-.1-.3-.2-.5-.3-.8 0 0-.1 0-.1.1-2.7 1.1-5.2 2.1-7.9 3.1.2.4.3.8.5 1.2zM315.8 205.1c-1.5 4.2-6.6 6.6-9.5 9.8-2.7 3-4.8 6.3-6.5 10-3.2 7.2-4 14.9-2.7 22.6.5 3.2 5.3 1.8 4.8-1.3-1.4-8.4.4-17 5.1-24 3.8-5.8 11.2-9 13.6-15.7 1-3.1-3.8-4.4-4.8-1.4zM259.3 279c-4-5.2-10-6.9-16.5-5.8-4.5.7-8.7 2.6-12.9 4.2-4.9 1.9-10.3 4.8-15.7 3.9-3.1-.5-4.5 4.3-1.3 4.8 6.9 1.1 12.9-1.8 19.2-4.3 6.7-2.6 17.2-7.6 22.8-.3 2 2.6 6.3.1 4.4-2.5z"/><path class="st1" d="M329.3 230.6s5.8-5 13.9-8.8 18.4-6.4 21.2-7.1c2.8-.8 12.3-3.2 17.5-3.4s10.4-.5 10.4-.5l-63 19.8z"/><path class="st23" d="M259.2 30.8s.1 2.9 3.2 6.5 7 9 9.4 12.9 3.9 5.6 3.9 5.6h7.7l13.3-5.2-2-2.6s-6.6-4.3-9.6-8.3c-2.9-4.1-5.5-7.1-5.8-8.3-.2-1.2-11.2-2.1-11.2-2.1l-8.9 1.5z"/><path class="st11" d="M392.3 210.8s-25.5 5.4-32.9 7.8c-7.4 2.4-30.1 12-30.1 12l63-19.8z"/><path class="st1" d="M332 223.2s5.7-8.7 21.9-18.4 26.5-11.5 26.5-11.5L332 223.2z"/><path class="st11" d="M332 223.2s16.1-12.8 22.9-16.4c6.8-3.6 25.4-13.6 25.4-13.6l-48.3 30z"/><path class="st1" d="M330.8 218.6s5.1-12.7 14.6-21.1c9.4-8.4 22.2-15.9 22.2-15.9s-15.9 12.9-20.7 17.8c-4.4 4.5-16.1 19.2-16.1 19.2z"/><path class="st16" d="M330.8 218.6s10.3-15.4 14.7-19.6c4.4-4.2 22.1-17.4 22.1-17.4s-16 13.5-20.9 18.5c-4.3 4.3-15.9 18.5-15.9 18.5z"/><path class="st21" d="M653.5 223.3c0 2.2.1 4.4-.1 6.5-.1.7-.9 1.4-1.5 2.1-.4-.7-1.2-1.3-1.3-2-.2-3.4-.3-6.9-.4-10.3-.3-9.8-.4-19.6-1.1-29.4-1-14.5-2.4-29-3.9-43.5-1.1-10.2-2.6-20.3-4.1-30.4-.5-3.1-1.4-6.1-2.2-9.1-.1-.4-.4-.9-.3-1.3.2-.8.6-1.5.8-2.3.6.5 1.6.9 1.8 1.5 1.3 5.2 2.8 10.4 3.5 15.7 1.9 13 3.8 26 5.2 39.1 1.1 9.7 1.5 19.4 2 29.1.8 11.4 1.2 22.8 1.6 34.3zM582.2 103.4h-9.9c-.7 0-1.5-.1-2.2-.4-.5-.3-1-1.1-.9-1.5s.9-1 1.4-1c6.4-.1 12.9.3 19.2-.4 11.5-1.2 23.2-1 34.4-4.4 5.3-1.6 10.3-4.3 15.4-6.4.7-.3 1.6.1 2.4.1-.2.8-.2 1.8-.7 2.3-1.1 1-2.4 1.8-3.7 2.4-10 4.6-20.4 6.9-31.4 7.5-8 .5-16.1 1.3-24 1.8 0 .2 0 .1 0 0zM634.2 150.8c0 1 .1 2.1-.1 3.1-.1.6-.8 1-1.2 1.6-.5-.5-1.3-.9-1.4-1.5-.3-1.8-.3-3.6-.5-5.3-1.1-12.3-2.3-24.7-5.6-36.7-.2-.6-.4-1.2-.3-1.7.1-.7.5-1.4.8-2 .6.5 1.6.9 1.8 1.5 1.2 4.4 2.4 8.8 3.1 13.3 1.4 9.2 2.6 18.5 3.8 27.7-.2-.1-.3 0-.4 0zM612 111.9c.5-1.1.9-3 1.5-3.1 2.1-.1 1.5 1.9 1.7 3.1.4 3.2.8 6.3 1 9.5 0 .6-.6 1.3-.9 2-.6-.6-1.6-1-1.7-1.7-.5-3.2-.9-6.5-1.2-9.7-.2.1-.3 0-.4-.1z"/><path class="st22" d="M349.9 415.3c1.1 4.8 2.5 9.6 4 14.4 2.3 7.2 5.9 13.8 11.5 18.9 5.2 4.7 10.9 8.9 16.4 13.2 5.5 4.2 11.6 7.1 18.4 8.3 3.5.7 7.2 1.1 10.8 1.7 13.5 2.2 27 4.5 40.5 6.8 15.4 2.7 30.9 3 46.5 2 14-1 27.6-3.9 41-8.1 4-1.3 7.7-3.4 11.7-4.7 9.6-3.2 19.4-6 29.1-9 7-2.1 14.2-3.9 21-6.5 17.8-6.7 33.9-16.8 49.5-27.7 11.8-8.3 23.6-16.7 34.3-26.4 6.5-5.9 13.7-11.2 20.4-16.9 7-6 13.7-12.4 20.9-18.3 5.4-4.5 10.1-9.6 13.7-15.6 3.9-6.6 7.3-13.5 10.9-20.3 10.4-19.7 18.8-40.2 25.2-61.5 2.4-8 4.2-16 2.7-24.5-.5-3-.9-6.1-1.2-9.1v-.1c-.2-2-.4-4-.5-6-.9-12-2.6-23.8-5.6-35.4-3.8-14.7-5.2-29.6-6.2-44.6-.6-8-1.1-16.1-1.9-24.1-.6-6.5-1.5-13-2.3-19.4-.6-4.3-1.2-8.5-1.9-12.8-.4-2.2-1-4.5-1.7-6.7-.9-2.9-1.4-6.1-3-8.6-2.4-3.7-5.6-7-8.6-10.3-10.8-11.7-22.7-22.1-37.6-28.2-11.7-4.8-23.5-9.1-35.5-13.1-16-5.3-32.4-8.7-48.9-12.2-24.1-5.1-48.3-8.4-73-7.4-11.6.5-23.2.9-34.8.9-17 .1-33.7 3.1-50.5 5.7-11.8 1.8-23.5 3.7-35.2 5.7-13.9 2.4-27.8 4.9-41.7 7.5-9.3 1.8-18.2 4.9-27.9 4.9s-19.5 1.6-29.2 2c-11.7.5-23.5.6-35.2.4-13.7-.2-27.4-.8-41.1-1.2-8.9-.2-17.8-.2-26.7-.5-7.9-.3-15.8-.6-23.7-1.5-9.9-1.1-19.9-1.3-29.7.4-24.9 4.4-48 13.4-68.2 29-8.9 6.8-14.8 16.1-20.7 25.2-4 6.1-5 13.3-7.1 20.2-4.1 13.9-4.3 28-3.2 42.2l.7 2.1-9 57.2-4.3 13.8c-1 2.1-9.1 25.7-9.5 28.7-.4 3-1.7 8.9-1.3 12.6.3 3.7.8 9.2.7 11.2 1.5.8-.2 3.7.3 7.1.6 3.4.9 4.2 3.1 6 2.2 1.8 4.8 2.8 5.5 2.9s3.9.2 5.2 0c.9 1.7.1 3.3 3.1 5.8s1.8.6 4.4 2.4c2.6 1.8 6.8 4.3 9.5 5s4.2-.4 6.8.1 3.3 1.6 5.4 1.8c2.1.2 5.6 2.4 7.5 2.9 1.9.5 11.6 2.3 14.8 1.6 3.2-.8 5.7-3.6 6.8-6.2 2.8-1 3.1.8 8.2 2.2 5.1 1.3 6.6 1.4 8.2.7s4.2-1.9 6.8-4.4c2.6-2.5 1.3-9.1 1.3-9.1l-.6-2.4c11.9 6.1 25.6 9.9 25.6 9.9L210 309s6.2 3.4 10.4 2.9c4.1-.5 4.3.5 8.5-2.5 5.8-1.3 12.3 1.5 17.1 2.5 4.9 1.1 20.9 6.5 24.9 6.3 4-.1 13.9-2.1 18.9-4.1s13.2-5.6 16.4-8.5c3.1-2.9 11.1-8.9 16.5-17.1 5.4-8.3 2.2-2.5 5.9-8.7 3.7-6.2 5-8.8 10.8-9.8s6.6-2.3 14-3.9 17.7-4.7 23.4-5.6c5.6-.9 15.1-3.1 19.2-3.2 4.1-.1 23.8-.1 25.4.5 0 0 222.5-13.4 244.1-22.7 23.8-6.3 51.1-16.7 71.5-23 .3 2.9-.8 10.4-.6 13.2.5 8.3 1.1 16.7-2 24.6-1.4 3.4-3.3 6.7-5.3 9.8-6.9 10.7-14.3 21.2-23 30.6-6.1 6.5-13.6 10.3-21.7 13.4-3.4 1.3-7 2.4-10.6 3.5-1.7.5-3.4.7-5.2 1.1-2.6 1.3-5.3 2.4-7.8 3.8-5.2 2.9-10.4 6.1-15.7 8.9-9.3 4.8-18.7 9.4-28 14.1-7.5 3.7-14.5 8.4-22.7 10.5-12.3 3.1-24.5 6.5-36.8 9.4-4.5 1.1-9.1 1.4-13.7 1.9-6 .7-11.9 1.2-17.8 1.7-1.9.1-3.8-.1-5.7-.1-4 0-8 .3-12 .1-2.9-.1-5.9-.9-8.8-1.3-5.4-.8-10.9-1.1-16.3-2.2-6.9-1.4-13.9-3.2-20.7-5.4-6.2-2-12.3-4.4-18.3-7.1-4.6-2.1-8.9-4.9-13.3-7.3-.2-.2-.4-.3-.6-.5-.3 0-.6 0-1-.1-2.7-.6-5.3-1.6-8-1.7-9.8-.4-19.4 1.9-29 3.9-8.9 1.8-16.4 5.9-23 12.2-8.3 7.9-13.6 17.7-17.9 28.1-3 7.3-3.9 14.9-3.5 22.8 0 5.2.8 10.3 1.9 15.3z"/><path d="M421.1 237.4c.2-7.1.5-14.2.7-21.2.2-3.5.4-7 .7-10.5 1.1-10.9 2.2-21.8 3.5-32.7 1.2-10.1 2.6-20.1 3.7-30.2 1.4-12.5 2.5-25 3.9-37.4.9-8.2 2-16.4 3.1-24.6.4-2.8 2.8-4.3 5.1-5.3 4.2-1.8 8.6-3.6 13-4.8 13.8-3.7 28-5.6 42.3-6.6 15.1-1 30.3-2.1 45.5-2.2 24.8-.3 49.5.8 74 4.8 7.9 1.3 15.7 2.9 23.2 5.9 6.2 2.5 9.4 7 10 13.5.3 3 .7 5.9 1 8.9 1.5 12.4 3 24.8 4.4 37.2.2 1.9.5 3.9.8 6.1 1-.8 1.6-1.3 2.2-1.9 7.5-6.4 15.8-11.7 25.3-14.4 11.7-3.4 22.9-2.8 33.5 3.9 6 3.8 10.4 9.1 14 15.2 1 2.2 2.2 4.4 3.1 6.7 5.7 14.6 6.2 29.8 3.7 45.1-1.1 6.9-3.2 13.7-4.8 20.5l-1.5 3.6c-6.5 17.5-16.2 33-30.1 45.6-9.6 8.7-20.4 15.3-33.5 17.4-.3.1-.7.2-.7.3v20.8c0 1.7-.6 3.6 1.2 5 .3.2 0 1.1-.1 1.7-2.6 1.3-5.3 2.4-7.8 3.8-5.3 2.9-10.4 6.2-15.7 8.9-9.3 4.8-18.7 9.3-28 14.1-7.4 3.8-14.4 8.5-22.7 10.5-12.3 3.1-24.5 6.4-36.8 9.4-4.5 1.1-9.1 1.4-13.7 1.9-5.9.6-11.8 1.2-17.8 1.7-1.9.2-3.8-.1-5.7-.1-4 0-8 .3-12 .1-2.9-.1-5.9-.9-8.8-1.3-5.4-.7-11-1-16.3-2.2-7-1.5-13.9-3.3-20.7-5.4-6.2-2-12.3-4.4-18.3-7.1-4.6-2.1-8.9-4.8-13.3-7.3-.2-.6-.4-.7-.5-.9-3.4-6.3-3.2-13.5-4.9-20.3-2.9-11.6-3.6-23.4-3.8-35.3-.1-6-.5-12.1-.7-18.1m279.2-34c.8-1.2 1.6-2.5 2.4-3.7.4-.5.9-1 1.3-1.5 5.2-8.3 9.2-17 11.8-26.5 1.5-5.5 2.7-11.1 2.3-17-.2-2.6-.1-5.2-.5-7.8-2.4-14.5-12.9-21.9-27.1-19.2-11.7 2.2-21.1 8.9-29.5 16.9-.5.4-.6 1.5-.5 2.2.4 4.9 1 9.8 1.5 14.7.6 6 1.2 12 1.7 18 .6 9.8 1.2 19.7 1.9 29.5v3.3c.4 6.6.7 13.2 1.1 20 .4-.1.9-.2 1.3-.4 13.4-6.4 23.8-16.4 32.3-28.5zM476.2 93c4.2.5 8.4 1.2 12.6 1.5 10.7.8 21.4 1.6 32.1 2.1 5.4.3 10.9.1 16.4.1 9.6-.1 19.3-.1 28.9-.6 8.3-.4 16.5-1.2 24.7-2.1 7.3-.8 14.7-1.5 21.9-2.8 7-1.2 13.8-3 20.7-4.5.7.1 1.6.5 2.1.3 2.5-1.2 5-2.4 7.2-4 2.4-1.7 2.3-4.7-.3-6-3.3-1.7-6.7-3.2-10.2-4.3-4.9-1.5-9.9-3.1-14.9-3.8-9.3-1.4-18.6-2.4-27.9-3.2-8.6-.7-17.3-1.1-25.9-1.4-6.3-.2-12.5.3-18.8.4-5.7.1-11.3-.2-17 0-9.7.4-19.3 1.1-29 1.8-4.8.3-9.6.8-14.4 1.4-7.6 1-15.1 2.1-22.7 3.5-7.1 1.3-14.1 3-20.2 7.3-2.6 1.8-2.4 4.3-.3 5.7 2.2 1.5 5.1 2.1 7.6 3.2 8 1.7 16.1 3.3 24.1 5l3.3.4zm177.3 130.3c-.4-11.4-.7-22.9-1.3-34.3-.5-9.7-1-19.4-2-29.1-1.4-13.1-3.3-26.1-5.2-39.1-.8-5.3-2.3-10.5-3.5-15.7-.1-.6-1.2-1-1.8-1.5-.3.8-.7 1.5-.8 2.3-.1.4.2.8.3 1.3.7 3 1.7 6.1 2.2 9.1 1.5 10.1 3.1 20.2 4.1 30.4 1.5 14.5 2.9 29 3.9 43.5.7 9.8.7 19.6 1.1 29.4.1 3.4.2 6.9.4 10.3 0 .7.8 1.3 1.3 2 .5-.7 1.4-1.4 1.5-2.1-.1-2.2-.2-4.4-.2-6.5zm-222.3 27.3c.1 1 .2 2.9.3 4.8.2 4.5.2 9 .5 13.4.2 3 .5 6.1 1 9.1.9 6 1.7 12.1 3.1 18 2.3 10.5 5 21 7.6 31.5.2.7 1.4 1.8 1.9 1.7 1.3-.3 1-1.4.8-2.6-2.2-9.1-4.6-18.2-6.6-27.4-3.6-16.4-5.7-33-5.6-49.8 0-5.6.3-11.2.4-16.8.1-4.2.2-8.4.6-12.6.3-3.6 2.2-8.3 1-11.7-4.3 1.5-3.9 11.8-4.1 15.6-.6 8.7-.7 17.3-.9 26.8zm6.9 81.7c.7 1 2.1 1.4 3.1 2 1.4.8 2.7 1.7 4.1 2.5 2 1.2 3.9 2.4 5.9 3.5 3.7 2.2 7.5 4.4 11.4 6.2 8.5 3.9 17.7 5.8 26.9 7.2 5 .8 9.3 1.4 14.2 2.2h.5c1.6-.2 1.9-2.4.4-3.1l-.3-.2c-2.5-.4-5.4-.7-8-1.1-2-.3-4.1-.6-6.1-.9-12.7-1.9-25-5.2-36.2-11.6-2.9-1.6-5.6-3.4-8.4-5.2-.9-.6-1.8-1.2-2.6-1.9s-1.7-1.4-2.7-1.7c-.7-.3-1.5-.3-2.1.2-.4.4-.6 1.1-.3 1.7.1 0 .1.1.2.2zm144.1-228.9v.2c8-.7 16.1-1.4 24.1-1.9 10.9-.7 21.4-3 31.4-7.5 1.3-.6 2.6-1.5 3.7-2.4.5-.5.5-1.5.7-2.3-.8 0-1.7-.4-2.4-.1-5.2 2.1-10.1 4.8-15.4 6.4-11.2 3.3-22.9 3.2-34.4 4.4-6.4.6-12.8.2-19.2.4-.5 0-1.3.6-1.4 1-.1.4.4 1.2.9 1.5.6.3 1.4.4 2.2.4 3.2 0 6.5-.1 9.8-.1zM456 275.3c-.3-1.4-2.2-1.3-2.4.1-.1 1.4.2 2.6.3 4.5.4 4.3.8 8.6 1.5 12.9 1.7 10 3.6 19.9 5.7 29.8 1.4 6.6 3.2 13 5 19.5 0 .1.1.2.1.3.7 1.4 3 .5 2.6-1.1v-.1c-.5-2.5-1.4-4.9-2-7.3-2.9-13.5-5.8-26.9-8.4-40.4-1-6.1-1.3-12.2-2.4-18.2zm178.2-124.5c.1 0 .3 0 .4-.1-1.2-9.2-2.4-18.5-3.8-27.7-.7-4.5-2-8.9-3.1-13.3-.2-.6-1.1-1-1.8-1.5-.3.7-.7 1.3-.8 2-.1.5.2 1.2.3 1.7 3.3 12 4.6 24.3 5.6 36.7.2 1.8.2 3.6.5 5.3.1.5.9 1 1.4 1.5.4-.5 1.1-1 1.2-1.6.2-.9.1-2 .1-3zm-157 159v.4l.9 4.8c.6 3.3 1.3 6.7 2 10 .2.8.3 1.6.5 2.4.2.8.2 1.7.5 2.4.9 3.9 2.3 7.7 3.8 11.4.1.3.3.5.6.7 1 .7 2.5-.1 2.3-1.3 0-.1 0-.2-.1-.3-2.5-6.1-4.2-12.5-5.5-18.9-.7-3.2-1.3-6.4-1.9-9.7-.1-.5-.2-1.3-.3-2.1-.2-1.5-2.7-1.5-2.8.2zM612 111.9c.1.1.3.1.4.2.4 3.2.7 6.5 1.2 9.7.1.6 1.1 1.1 1.7 1.7.3-.7 1-1.4.9-2-.2-3.2-.6-6.4-1-9.5-.2-1.2.4-3.3-1.7-3.1-.6 0-1 2-1.5 3z" fill="#0f1047"/><path class="st16" d="M473.1 92.7c4.5-1.6 5.7-1.8 7.4-.9-1.5.4-2.9.8-4.2 1.2-5.1 1.1-7.6 5.1-9.7 9.2-4.2 8.4-5.8 17.4-6.2 26.7-.3 8.4-.2 16.7-.2 25.1 0 .8-.1 1.5-.2 2.3h-.6c-.1-.4-.4-.9-.4-1.3-.7-13-.7-26.1 1.8-38.9 1.4-7.3 3.4-14.6 8.9-20.3 1-1 2.2-2 3.4-3.1z"/><path d="M443.6 216.8c.2-11.3.4-22.3.7-33.3 0-1.3.5-2.8 1.3-3.8 4.1-5.1 8.3-10 12.5-15 .3-.4 1.6-.5 1.9-.2 4.1 3.8 7.9 7.9 12.1 11.6 2.9 2.6 3.2 5.5 3.1 9.2-.1 8.2.7 16.4 1.1 24.6.1 1.3.1 2.5.1 3.8.1 3 .1 3-3.1 3h-27.8c-.6.2-1.3.2-1.9.1zm16.6-18.3c0-1.1-.1-2.2 0-3.3.2-2.1.9-3.9 3.4-4.2 1.2-.2 2.3-.6 3.4-1 .6-.3.9-1 1.4-1.5-.7-.3-1.3-.8-2-.8-.9 0-1.9.2-2.5.7-1.6 1.3-3.1 2.8-4.9 4.5-.6-.6-1.3-1.5-2.2-2-1-.4-2.2-.4-3.4-.4-.3 0-.8 1.3-.7 1.3.8.6 1.6 1.3 2.5 1.5 3.6.8 3.6.7 4 4.4 0 .3.1.6.1.9-1.9.2-3.8.3-5.7.6-.6.1-1.6.5-1.7.9-.1.8.1 2.3.5 2.4 1.9.5 1.9 2 2.2 3.4 1.5 6.7 1.5 6.7 8.5 6.6 3 0 3-.2 3.5-3.1.4-2.4.1-4.9 2.2-6.8.5-.5.4-2.2 0-3.1-.3-.6-1.5-1.2-2.3-1.2-2.2-.1-4.2.1-6.3.2z" fill="#fa0874"/><path d="M460.2 198.5c2.1-.1 4.2-.4 6.2-.3.8 0 2.1.6 2.3 1.2.4.9.5 2.6 0 3.1-2.1 1.9-1.8 4.5-2.2 6.8-.5 2.9-.5 3.1-3.5 3.1-7 .1-7 .1-8.5-6.6-.3-1.4-.3-2.9-2.2-3.4-.4-.1-.6-1.6-.5-2.4.1-.4 1.1-.8 1.7-.9 1.9-.3 3.8-.4 5.7-.6h1z" fill="#8a3309"/><path class="st12" d="M460.2 198.5h-.8c0-.3-.1-.6-.1-.9-.4-3.7-.4-3.6-4-4.4-.9-.2-1.7-.9-2.5-1.5-.1 0 .5-1.3.7-1.3 1.1 0 2.4 0 3.4.4.9.4 1.6 1.4 2.2 2 1.8-1.7 3.2-3.2 4.9-4.5.6-.5 1.7-.7 2.5-.7.7 0 1.3.5 2 .8-.5.5-.8 1.2-1.4 1.5-1.1.5-2.2.9-3.4 1-2.5.4-3.2 2.1-3.4 4.2-.2 1.2-.1 2.3-.1 3.4z"/><path class="st11" d="M203.7 304.9c-.3.6-.5 1.1-.6 1.3-1.2 3.2-2.3 6.4-3.2 9.6-1.9 6.5-3.4 13.1-4.6 19.8-2.3 13.5-3.3 27.1-3.7 40.7.2-7.2-.7-14.3-.3-21.6.4-7.6 1.4-15.1 2.9-22.5 1.5-7.2 3.4-14.4 5.9-21.3.9-2.6 2.1-8.7 4.2-10.6 2.2-1.8.5 2.3-.6 4.6zM192.4 280.2c0-.2 0-.4-.1-.5-.4-.8-1.7-.4-2.4.1-7.4 5-13.9 11.3-19.6 18.1-5.8 6.9-11.2 14.4-15.9 22.1-2.5 4-4.7 8.3-6.3 12.7 7.3-12.3 15.6-23.9 25-34.6 1.3-1.5 2.3-3 3.9-4.4 2-1.7 4-3.3 6-5 2.9-2.4 5.7-4.8 8.6-7.1.2-.4.7-.9.8-1.4zM201.1 288.8c0-.2 0-.4-.2-.5-.2-.1-.5 0-.7.2-3.9 2.6-7.2 6.1-9.9 10-3.4 4.9-5.8 10.3-8.6 15.5-5.2 9.9-8.8 20.5-11.1 31.4-.7 3.1-1.2 6.2-1.6 9.4 1.1-6.3 2.9-12.4 5-18.4 2.1-5.8 4.4-11.7 7.4-17.1 5.8-10.3 11.8-20.6 19.4-29.9.2-.2.3-.4.3-.6z"/><path d="M116.1 226.8s-1 14.2.7 20c1.7 5.8 8 16.2 10.7 19.5 2.7 3.3 3.3 8.4 16 16.3 1.7 1 3.1 1.1 4.9 2.1" fill="none" stroke="#000" stroke-width="2" stroke-linecap="round" stroke-miterlimit="10"/><path class="st13" d="M70.4 204.1c-2.2-.5-4.4-1.1-6.5-2-2.1-.9-4.2-1.8-6.3-2.6-4.1-1.6-8.4-3-12.6-4.4-6.7-2.3-13.5-4.3-20.3-6-3.9-1-8-.9-11.9-1.7-1.6-.3-3.1-1.5-4.6-2.3 3.2-1.1 6.3-2.7 9.6-3.4 5-1.1 10-1.7 15.1-2.3 4-.5 8.1-.6 12.2-.9.4 2.5 2.6 3.2 4.4 4.3 3.7 2.3 7.6 4.4 11.2 6.9 6 4.2 11.9 8.4 18.6 11.4 3.4 1.5 7.7 4.3 11 6-1.1.6-2.6 1.1-3.7 1.7-.6-.3-2-1.6-2.6-1.8-4.3-1.5-9-1.9-13.6-2.9z"/><path class="st14" d="M148 213.9l-3.6-7.2-9-6.3-19.6-8-19.1-4.9-21.1-4.8-23-4.8-7.6-.7-1 .7s-4.1-.6-5.8 0c7.8 8.5 24 16.1 32.9 19.7 7.2 2.9 29.2 10.4 29.2 10.4l1.5 4.2"/><path class="st1" d="M98.3 222c3.1-2.1 6.3-3.7 9.8-5.4 2.2-1.1 4.4-2.2 6.7-3 1.9-.6 5.1-2.5 7-2.5-7 0-14.1.9-21 1.4.1-.6.2-1.2.2-1.8-9.5.4-18.9 2.5-27.6 6 2.9-1.1 5.3-4 7.9-5.7 9.9-6.6 22.1-6.2 33.6-6.7 1.4-.1 2.8 0 4.3 0-.2-.1-.4-.1-.6-.2h.2c-2.2-.8-4.4-1.3-6.7-1.6-3.8-.5-7.3-2.1-11-2.7-6.4-1.1-13.1-1.1-19.7-1.6l-6.7-.6c.5-.6 1.1-.9 1.7-1 7.2-1.7 14.4-2 21.7-1.8 4 .1 8 .5 12 .9 3.1.3 6.1.9 9.2 1.4 1.1.3 2.1.6 3.2.8.7.2 1.4.3 2.1.5 2.5.9 5.3 1.8 8.1 2.8.9.3 1.9.7 2.8 1l.1.1c.1.1.2.1.3.1l.6.3c.1.1.3.1.4.1.3.2.6.3.9.5l12.9 9.3c.1 2.3-1.3 1.7-2.6 1.3-.2.1-.4.1-.5.2-.5.2-1.1.5-1.7.7-5.8 2.1-11.7 4.2-17.5 6.3-1.2.5-2.5 1-3.7 1.4l-6.6 3.3c-.5.3-1.1.5-1.6.8l-.1.1h-.1c-.1 0-.3.1-.4.1l-.9.6c-2.8 1.6-5.6 3.1-8.3 4.7-.2-.1-.4-.3-.5-.4 1-1.4 1.9-2.8 2.9-4.1l4.2-5.1c2 .1 2.9-1 3.4-3.2-1-.1-1.9-.2-2.8-.3-3.8 1.1-7.7 2.1-11.5 3.2-1.8.5-3.7 1-5.5 1.6.4-.6.8-1.4 1.4-1.8z"/><path class="st19" d="M77 147.7c7.3-2.3 14.5-5.6 22.3-5.5 5.4.1 10.1 2.4 14.1 5.7 4.5 3.7 8.9 7.7 13.1 11.7 5.5 5.2 10.8 10.5 16.2 15.7 4.4 4.2 7.6 9.3 10.7 14.5 2.1 3.7 4.7 7.2 6.3 11 1.3 3 4 10.4.2 12.7-3.7 2.3-8.2-2.9-10.8-4.8-20.5-15.6-46.7-21.2-71.9-26.5-10.8-2.2-21.7-4.5-32.8-5-6.8-.3-13.6 0-20.3 1.4-6.8 1.4-13.3 4-19.9 6.1-.7-2.1.5-3.5 1.9-4.8 4.8-4.5 10.4-7.8 16.3-10.5 9.5-4.4 19-8.9 28.6-13 8-3.5 16.5-5.9 24.8-8.4l1.2-.3z"/><path d="M4.3 184.7c6.6-2.1 13.1-4.7 19.9-6.1 6.7-1.4 13.5-1.7 20.3-1.4 11.1.5 22 2.8 32.8 5 25.2 5.2 51.4 10.9 71.9 26.5 2.5 1.9 7.1 7.1 10.8 4.8-3.7 2.3-8.2-.9-10.8-2.8-20.5-15.6-46.7-21.2-71.9-26.5-10.8-2.2-21.7-4.5-32.8-5-6.8-.3-13.6 0-20.3 1.4-6.1 1.3-12.2 3-17.8 5-1.9.6-1.9-.5-2.1-.9"/><path class="st2" d="M346.7 33.1s-10.4 27.6-12.4 34.4-3.8 10.8-4.8 16-5.5 18.2-7.3 29.7-3.1 16.2-1.7 24.3c1.4 8.1 4.3 8.3 4.3 10.9s-3.3.7-5.7-.5c-2.3-1.2-16-10.5-16-10.5L300 60.8l39.4-27.7h7.3z"/><path class="st14" d="M316.2 56.7s1.6.7 1.5 3.8c-.2 3 .2 8.5.1 10.9s-.6 10.5-1 15.9-3.1 19.4-4 25.6c-.9 6.2-2 12.7-3.7 16-1.8 3.4-4.3 6.8-6 8.5-4.8-.3-11.6-.8-14.6-1.2-3-.4-9.7-1.3-11.3-1.5-1.5-.2-5.7-.6-7.8-2.5-2.1-1.9-2.7-4-2.7-4v-27.3l43-48 6.5 3.8z"/><path class="st1" d="M283.3 91.9c.9-.5 2.8-1.7 3.7-2.4 2.1-1.4 3.4-2 5.2-3.4 2.3-1.7 4.9-2.2 7.1-4 2.4-2.1 5.3-3.6 8-5.3.2.2.3.5.5.7-.7.5-1.5 1.1-2.2 1.7l-4.8 3.9-.5.5c.2-.1.4-.2.7-.2 4.5-2.1 9.1-4.1 13.6-6.2.1.1.2.2.2.3-.5.6-1 1.1-1.5 1.8 1.3-.1 2.4-.2 3.6-.3 0 .2.1.4.1.6-2.6 1.2-5.1 2.3-7.7 3.5 0 .1.1.2.1.2 1-.1 2-.2 2.8-.3-5.7 4.1-11.7 7.7-17 12.2-9.7 8.3-13.5 13.1-13.4 15.6.4-.2.7-.4 1-.6 7.3-5.2 14.9-9.9 23.2-13.4 3.3-1.4 6.8-2.7 10.2-4l2.4-.3c2.9-.6 5.8-1.3 8.7-2 1.6 1.4-1 .6-.7 1.4-3.9 2.1-7.8 4.3-11.7 6.4-3.7 2.1-7.4 4.1-11.1 6.2-1.9 1.1-3.8 2.2-5.7 3.4-1.9 1-3.8 2.1-5.7 3.1-.2.1-.3.2-.5.2.2-.1.3-.2.5-.3 2-.9 3.9-1.9 5.9-2.8 1.8-.8 3.5-1.6 5.3-2.3 3.8-1.6 7.5-3.3 11.3-4.9.8-.2 1.6-.3 2.4-.5 2.7-.7 5.4-1.5 8-2.2 1-.1 2-.3 3-.4.1.2.1.4.2.6l-3.9 2.7c-1.5.8-3.1 1.5-4.6 2.3-1.3.6-2.9 1.1-4 2 .5.8 2.9 0 3.7 0 1.4-.2 2.8-.3 4.3-.4h7.1v.7l-7.8 2.1c-1.9.4-3.7.9-5.6 1.2-1.4.2-4.6 1.3-4.6 1.3-8.6 1.7-16.3 5.2-23.9 10.2 1-.2 1.5-.2 2-.4 2-.8 3.9-1.9 6-2.3 4.1-.7 8.4-1 12.6-1.5.9-.1 1.7-.3 2.5-.4 3.1-.2 6.2-.3 9.4-.5.8.3 1.7.8 2.5.9 1.7.1 3.4 0 5.1 0 0 .3 0 .5.1.8-.9.2-1.7.4-2.6.5-2.1.4-4.2.7-6.3 1-2.9.3-5.8.6-8.8.8-.4 0-3 0-2 .8.4.3 1.2.1 1.6.1h9l9.3.9c-.4.6-.8.8-1.3.9-3 .4-5.9.9-8.9 1.3-2.8.2-5.7.4-8.5.6-5 .3-9.9.7-15 1l12.2 6.1c.8.7 1.6 1.4 2.4 2-.1.1-.2.2-.2.3l-5.7-2.1c-1-.4-2-.7-2.9-1.1-.4-.2-1-.5-1.5-.5-.2 0-.3-.2-.5 0l-.1.3c1.3.9 3.1 1.3 4.5 2.1.9.5 1.6 1.1 2.3 1.7-6.2-2.2-12.5-4.2-18.6-6.8-.8 0-2-.7-2.9-.9-1-.2-2-.4-3.1-.5-1.1-.1-2.3-.2-3.4-.2-1.2.1-2.3.1-3.4-.2-.7-.2-1.3-.7-2-.9-.4-.1-.8-.1-1.2-.2-.8-.3-1.5-.9-2-1.6-.4-.5-1.1-1.3-.8-2 1.2-2.9 2.4-5.9 3.6-8.8 0-.1.1-.3.1-.4.1-.3.3-.6.5-.9 1.7-3.6 3.7-7 5.7-10.4.9-1.6 2-3.2 2.8-4.9.5-1.3.6-2.7 1.6-3.2z"/><g><path d="M346.9 29.6c.9 1.4.8 2.7-.2 3.5-8.6 6.4-16.5 11.9-24.7 18.7-7.1 5.9-14 12.1-20.5 18.7-8.2 8.4-15.5 17.7-21.4 28-1.5 2.5-3.3 4.9-4.4 7.5-2.4 5.9-4.5 11.9-6.6 18-.5 1.5-.7 3.2-1 4.8-1.7 1.7-3.5 2.6-6.4 1l21.2-55.3 64-44.9z"/></g><path d="M296.3 49.2s-19.5 8.8-19.6 8.4c-.4-.7-1-1.9-.9-1.9 6.2-2.8 12.6-5.3 19-7.8l1.5 1.3z"/><g><path class="st23" d="M337 32.1c2.2-.9 4.3-2 6.6-2.7 1-.3 2.9-.3 3.3.2.9 1.4-.7 2-1.7 2.8-8.6 6.4-17.4 12.6-25.6 19.4-7.1 5.9-14 12.1-20.5 18.7-8.2 8.4-15.5 17.7-21.4 28-1.5 2.5-3.3 4.9-4.4 7.5-2.4 5.9-4.5 11.9-6.6 18-.5 1.5-.7 3.2-1 4.8-1.7 1.7-2.9 1.7-5.8.1-.9-.5-1.7-1.2-2.5-1.8-6-4.5-11.2-10-16-15.7-3.3-3.8-12.3-11.4-10.8-17 2-7.4 9.3-13.8 14.9-18.6 18-15.4 41.7-22.7 63.2-31.5 4.6-1.9 9.2-3.9 13.8-5.8 4.7-2.3 9.6-4.3 14.5-6.4z"/></g></g></svg>
