<svg xmlns="http://www.w3.org/2000/svg" viewBox="0 0 24 24"><path d="M 12 2 C 6.4889971 2 2 6.4889971 2 12 C 2 17.511003 6.4889971 22 12 22 C 17.511003 22 22 17.511003 22 12 C 22 6.4889971 17.511003 2 12 2 z M 12 4 C 12.339469 4 12.671853 4.0276556 13 4.0683594 L 13 5.0078125 L 9.9921875 5.03125 C 9.4431875 5.03525 9 5.48225 9 6.03125 L 9 8 L 8 8 C 7.448 8 7 8.447 7 9 L 7 10.185547 L 4.9746094 8.1601562 C 6.3301094 5.6778228 8.9630577 4 12 4 z M 15 4.5839844 C 17.935098 5.7673596 20 8.6326468 20 12 C 20 13.535888 19.563612 14.963507 18.818359 16.179688 C 18.504078 15.486169 17.809779 15 17 15 L 16 15 L 16 13 C 16 12.447 15.552 12 15 12 L 9 12 L 9 10 L 10 10 C 10.552 10 11 9.553 11 9 L 11 7.0234375 L 13.015625 7.0078125 C 14.109625 7.0008125 15 6.1028125 15 5.0078125 L 15 4.5839844 z M 4.2050781 10.21875 L 9 15.013672 L 9 16 C 9 17.103 9.897 18 11 18 L 11 19.931641 C 7.0457719 19.441154 4 16.090654 4 12 C 4 11.386323 4.0752771 10.792211 4.2050781 10.21875 z M 10.779297 14 L 14 14 L 14 16 C 14 16.553 14.448 17 15 17 L 17 17 L 17 18.248047 C 15.876599 19.14719 14.50453 19.745017 13 19.931641 L 13 17 C 13 16.447 12.552 16 12 16 L 11 16 L 11 14.599609 C 11 14.377758 10.91261 14.173249 10.779297 14 z"></path></svg>
